<?xml version="1.0" encoding="UTF-8"?><svg xmlns="http://www.w3.org/2000/svg" xmlns:xlink="http://www.w3.org/1999/xlink" width="375pt" zoomAndPan="magnify" viewBox="0 0 375 374.999991" height="374.999991pt" preserveAspectRatio="xMidYMid meet" version="1.2"><defs><g/><clipPath xml:id="clip1" id="clip1"><path d="M 115.164062 202.722656 L 259.914062 202.722656 L 259.914062 251.472656 L 115.164062 251.472656 Z M 115.164062 202.722656 "/></clipPath><clipPath xml:id="clip2" id="clip2"><path d="M 206.527344 143 L 233.8125 143 L 233.8125 208.429688 L 206.527344 208.429688 Z M 206.527344 143 "/></clipPath><clipPath xml:id="clip3" id="clip3"><path d="M 155.285156 141.363281 L 214 141.363281 L 214 217.835938 L 155.285156 217.835938 Z M 155.285156 141.363281 "/></clipPath></defs><g xml:id="surface1" id="surface1"><rect x="0" width="375" y="0" height="374.999991" style="fill:rgb(100%,100%,100%);fill-opacity:1;stroke:none;"/><rect x="0" width="375" y="0" height="374.999991" style="fill:rgb(100%,100%,100%);fill-opacity:1;stroke:none;"/><rect x="0" width="375" y="0" height="374.999991" style="fill:rgb(100%,100%,100%);fill-opacity:1;stroke:none;"/><g style="fill:rgb(0%,45.489502%,41.958618%);fill-opacity:1;"><g transform="translate(128.544855, 201.120233)"><path style="stroke:none;" d="M -4.25 0.25 L -9.21875 1.75 C -10.613281 2.164062 -11.753906 2.09375 -12.640625 1.53125 C -13.523438 0.96875 -14.148438 0.0703125 -14.515625 -1.15625 C -14.890625 -2.394531 -14.890625 -3.5 -14.515625 -4.46875 C -14.140625 -5.445312 -13.441406 -6.09375 -12.421875 -6.40625 C -11.984375 -6.539062 -11.65625 -6.539062 -11.4375 -6.40625 C -11.21875 -6.269531 -11.046875 -5.992188 -10.921875 -5.578125 C -10.691406 -4.816406 -10.820312 -4.359375 -11.3125 -4.203125 C -11.457031 -4.140625 -11.582031 -4.082031 -11.6875 -4.03125 C -11.800781 -3.976562 -11.9375 -3.882812 -12.09375 -3.75 C -12.257812 -3.625 -12.390625 -3.484375 -12.484375 -3.328125 C -12.578125 -3.171875 -12.628906 -2.960938 -12.640625 -2.703125 C -12.660156 -2.441406 -12.617188 -2.148438 -12.515625 -1.828125 C -12.148438 -0.585938 -11.285156 -0.171875 -9.921875 -0.578125 L -4.953125 -2.078125 C -3.585938 -2.484375 -3.09375 -3.316406 -3.46875 -4.578125 C -3.582031 -4.960938 -3.738281 -5.265625 -3.9375 -5.484375 C -4.132812 -5.703125 -4.359375 -5.835938 -4.609375 -5.890625 C -4.867188 -5.941406 -5.085938 -5.957031 -5.265625 -5.9375 C -5.453125 -5.914062 -5.671875 -5.875 -5.921875 -5.8125 C -6.410156 -5.707031 -6.765625 -6.015625 -6.984375 -6.734375 C -7.109375 -7.148438 -7.117188 -7.476562 -7.015625 -7.71875 C -6.910156 -7.957031 -6.640625 -8.140625 -6.203125 -8.265625 C -5.140625 -8.585938 -4.164062 -8.445312 -3.28125 -7.84375 C -2.40625 -7.25 -1.78125 -6.320312 -1.40625 -5.0625 C -1.039062 -3.84375 -1.070312 -2.753906 -1.5 -1.796875 C -1.9375 -0.847656 -2.851562 -0.164062 -4.25 0.25 Z M -4.25 0.25 "/></g></g><g style="fill:rgb(0%,45.489502%,41.958618%);fill-opacity:1;"><g transform="translate(125.45598, 190.719032)"><path style="stroke:none;" d="M -1.015625 -0.0625 C -1.046875 -0.0507812 -1.109375 -0.0507812 -1.203125 -0.0625 L -13.21875 -2.265625 C -13.488281 -2.304688 -13.710938 -2.460938 -13.890625 -2.734375 C -14.066406 -3.015625 -14.175781 -3.335938 -14.21875 -3.703125 C -14.257812 -4.066406 -14.226562 -4.40625 -14.125 -4.71875 C -14.019531 -5.03125 -13.84375 -5.238281 -13.59375 -5.34375 L -2.390625 -10.265625 C -2.316406 -10.296875 -2.265625 -10.316406 -2.234375 -10.328125 C -1.960938 -10.359375 -1.707031 -10.21875 -1.46875 -9.90625 C -1.226562 -9.601562 -1.085938 -9.273438 -1.046875 -8.921875 C -0.992188 -8.460938 -1.125 -8.171875 -1.4375 -8.046875 L -3.8125 -7.078125 L -3.3125 -2.859375 L -0.78125 -2.4375 C -0.445312 -2.382812 -0.253906 -2.128906 -0.203125 -1.671875 C -0.160156 -1.316406 -0.210938 -0.96875 -0.359375 -0.625 C -0.515625 -0.28125 -0.734375 -0.09375 -1.015625 -0.0625 Z M -5.25 -3.125 L -5.625 -6.34375 L -11.09375 -4.0625 Z M -5.25 -3.125 "/></g></g><g style="fill:rgb(0%,45.489502%,41.958618%);fill-opacity:1;"><g transform="translate(124.18576, 179.501443)"><path style="stroke:none;" d="M -0.6875 -1.15625 L -12.75 -1.90625 C -12.945312 -1.914062 -13.109375 -2.023438 -13.234375 -2.234375 C -13.367188 -2.441406 -13.425781 -2.703125 -13.40625 -3.015625 L -13.203125 -6.296875 C -13.128906 -7.617188 -12.726562 -8.648438 -12 -9.390625 C -11.269531 -10.140625 -10.171875 -10.472656 -8.703125 -10.390625 L -3.625 -10.078125 C -2.164062 -9.984375 -1.117188 -9.519531 -0.484375 -8.6875 C 0.140625 -7.851562 0.414062 -6.773438 0.34375 -5.453125 L 0.140625 -2.171875 C 0.117188 -1.859375 0.0234375 -1.609375 -0.140625 -1.421875 C -0.304688 -1.234375 -0.488281 -1.144531 -0.6875 -1.15625 Z M -1.90625 -3.65625 L -1.78125 -5.578125 C -1.707031 -6.867188 -2.375 -7.5625 -3.78125 -7.65625 L -8.859375 -7.96875 C -10.285156 -8.050781 -11.035156 -7.445312 -11.109375 -6.15625 L -11.234375 -4.234375 Z M -1.90625 -3.65625 "/></g></g><g style="fill:rgb(0%,45.489502%,41.958618%);fill-opacity:1;"><g transform="translate(124.944483, 168.14442)"><path style="stroke:none;" d="M -0.921875 -0.40625 C -0.953125 -0.414062 -1.015625 -0.441406 -1.109375 -0.484375 L -11.59375 -6.75 C -11.832031 -6.882812 -11.984375 -7.109375 -12.046875 -7.421875 C -12.117188 -7.742188 -12.109375 -8.082031 -12.015625 -8.4375 C -11.929688 -8.800781 -11.785156 -9.109375 -11.578125 -9.359375 C -11.378906 -9.617188 -11.140625 -9.75 -10.859375 -9.75 L 1.34375 -10.46875 C 1.4375 -10.46875 1.5 -10.460938 1.53125 -10.453125 C 1.789062 -10.390625 1.976562 -10.171875 2.09375 -9.796875 C 2.207031 -9.421875 2.222656 -9.0625 2.140625 -8.71875 C 2.023438 -8.28125 1.804688 -8.054688 1.484375 -8.046875 L -1.09375 -7.953125 L -2.109375 -3.828125 L 0.125 -2.546875 C 0.414062 -2.390625 0.507812 -2.085938 0.40625 -1.640625 C 0.320312 -1.296875 0.148438 -0.988281 -0.109375 -0.71875 C -0.378906 -0.445312 -0.648438 -0.34375 -0.921875 -0.40625 Z M -3.8125 -4.765625 L -3.046875 -7.90625 L -8.984375 -7.6875 Z M -3.8125 -4.765625 "/></g></g><g style="fill:rgb(0%,45.489502%,41.958618%);fill-opacity:1;"><g transform="translate(127.739686, 157.1575)"><path style="stroke:none;" d="M -1.78125 -1.28125 C -2.03125 -1.394531 -2.25 -1.601562 -2.4375 -1.90625 C -2.625 -2.21875 -2.664062 -2.5 -2.5625 -2.75 C -2.488281 -2.90625 -2.34375 -3.039062 -2.125 -3.15625 C -1.90625 -3.28125 -1.675781 -3.394531 -1.4375 -3.5 C -1.195312 -3.613281 -0.929688 -3.804688 -0.640625 -4.078125 C -0.359375 -4.347656 -0.132812 -4.675781 0.03125 -5.0625 C 0.269531 -5.613281 0.34375 -6.125 0.25 -6.59375 C 0.15625 -7.070312 -0.132812 -7.421875 -0.625 -7.640625 C -0.96875 -7.785156 -1.3125 -7.8125 -1.65625 -7.71875 C -2.007812 -7.632812 -2.34375 -7.46875 -2.65625 -7.21875 C -2.976562 -6.976562 -3.304688 -6.703125 -3.640625 -6.390625 C -3.984375 -6.078125 -4.335938 -5.769531 -4.703125 -5.46875 C -5.078125 -5.164062 -5.460938 -4.90625 -5.859375 -4.6875 C -6.253906 -4.476562 -6.707031 -4.367188 -7.21875 -4.359375 C -7.738281 -4.347656 -8.269531 -4.460938 -8.8125 -4.703125 C -9.414062 -4.960938 -9.894531 -5.316406 -10.25 -5.765625 C -10.601562 -6.210938 -10.816406 -6.691406 -10.890625 -7.203125 C -10.960938 -7.722656 -10.957031 -8.238281 -10.875 -8.75 C -10.789062 -9.269531 -10.632812 -9.796875 -10.40625 -10.328125 C -10.28125 -10.617188 -10.125 -10.921875 -9.9375 -11.234375 C -9.757812 -11.546875 -9.546875 -11.863281 -9.296875 -12.1875 C -9.046875 -12.519531 -8.769531 -12.757812 -8.46875 -12.90625 C -8.175781 -13.0625 -7.898438 -13.082031 -7.640625 -12.96875 C -7.390625 -12.863281 -7.164062 -12.671875 -6.96875 -12.390625 C -6.78125 -12.109375 -6.742188 -11.832031 -6.859375 -11.5625 C -6.898438 -11.457031 -7.125 -11.222656 -7.53125 -10.859375 C -7.945312 -10.503906 -8.273438 -10.050781 -8.515625 -9.5 C -8.785156 -8.882812 -8.875 -8.359375 -8.78125 -7.921875 C -8.695312 -7.492188 -8.457031 -7.191406 -8.0625 -7.015625 C -7.71875 -6.867188 -7.363281 -6.875 -7 -7.03125 C -6.644531 -7.195312 -6.300781 -7.445312 -5.96875 -7.78125 C -5.644531 -8.125 -5.257812 -8.476562 -4.8125 -8.84375 C -4.375 -9.21875 -3.929688 -9.546875 -3.484375 -9.828125 C -3.035156 -10.109375 -2.492188 -10.269531 -1.859375 -10.3125 C -1.234375 -10.363281 -0.570312 -10.238281 0.125 -9.9375 C 1.289062 -9.425781 2.035156 -8.65625 2.359375 -7.625 C 2.679688 -6.601562 2.578125 -5.488281 2.046875 -4.28125 C 1.578125 -3.195312 0.953125 -2.367188 0.171875 -1.796875 C -0.597656 -1.222656 -1.25 -1.050781 -1.78125 -1.28125 Z M -1.78125 -1.28125 "/></g></g><g style="fill:rgb(0%,45.489502%,41.958618%);fill-opacity:1;"><g transform="translate(131.947219, 147.647294)"><path style="stroke:none;" d="M -10.359375 -7 C -10.597656 -7.15625 -10.769531 -7.347656 -10.875 -7.578125 C -10.988281 -7.804688 -10.976562 -8.023438 -10.84375 -8.234375 L -6.546875 -14.8125 C -6.410156 -15.03125 -6.21875 -15.132812 -5.96875 -15.125 C -5.726562 -15.113281 -5.488281 -15.03125 -5.25 -14.875 C -5 -14.71875 -4.816406 -14.519531 -4.703125 -14.28125 C -4.597656 -14.050781 -4.609375 -13.832031 -4.734375 -13.625 L -6.21875 -11.359375 L 2.703125 -5.5625 C 2.898438 -5.425781 2.988281 -5.21875 2.96875 -4.9375 C 2.957031 -4.664062 2.863281 -4.394531 2.6875 -4.125 C 2.5 -3.84375 2.285156 -3.640625 2.046875 -3.515625 C 1.804688 -3.398438 1.585938 -3.410156 1.390625 -3.546875 L -7.53125 -9.34375 L -9.03125 -7.046875 C -9.15625 -6.847656 -9.335938 -6.75 -9.578125 -6.75 C -9.828125 -6.75 -10.085938 -6.832031 -10.359375 -7 Z M -10.359375 -7 "/></g></g><g style="fill:rgb(0%,45.489502%,41.958618%);fill-opacity:1;"><g transform="translate(137.67549, 138.885681)"><path style="stroke:none;" d="M 0.1875 -1.328125 L -8.671875 -9.546875 C -8.816406 -9.679688 -8.890625 -9.851562 -8.890625 -10.0625 C -8.890625 -10.269531 -8.816406 -10.457031 -8.671875 -10.625 L -6.15625 -13.328125 C -4.164062 -15.472656 -2.222656 -15.664062 -0.328125 -13.90625 C 0.421875 -13.21875 0.875 -12.5 1.03125 -11.75 C 1.1875 -11.007812 1.09375 -10.289062 0.75 -9.59375 L 5.703125 -8.3125 C 5.796875 -8.300781 5.890625 -8.253906 5.984375 -8.171875 C 6.210938 -7.960938 6.316406 -7.648438 6.296875 -7.234375 C 6.273438 -6.816406 6.140625 -6.476562 5.890625 -6.21875 C 5.648438 -5.957031 5.320312 -5.882812 4.90625 -6 L -0.640625 -7.546875 L -1.703125 -6.40625 L 1.84375 -3.109375 C 2.019531 -2.953125 2.078125 -2.738281 2.015625 -2.46875 C 1.953125 -2.207031 1.804688 -1.953125 1.578125 -1.703125 C 1.359375 -1.472656 1.113281 -1.3125 0.84375 -1.21875 C 0.582031 -1.132812 0.363281 -1.171875 0.1875 -1.328125 Z M -3.09375 -7.6875 L -1.703125 -9.1875 C -0.804688 -10.15625 -0.835938 -11.085938 -1.796875 -11.984375 C -2.773438 -12.890625 -3.710938 -12.859375 -4.609375 -11.890625 L -6 -10.390625 Z M -3.09375 -7.6875 "/></g></g><g style="fill:rgb(0%,45.489502%,41.958618%);fill-opacity:1;"><g transform="translate(145.337196, 130.704923)"><path style="stroke:none;" d="M -1.703125 -3.890625 L -4.828125 -8.03125 C -5.710938 -9.195312 -6.046875 -10.289062 -5.828125 -11.3125 C -5.617188 -12.332031 -4.984375 -13.238281 -3.921875 -14.03125 C -2.867188 -14.832031 -1.820312 -15.195312 -0.78125 -15.125 C 0.257812 -15.050781 1.222656 -14.429688 2.109375 -13.265625 L 5.234375 -9.125 C 6.109375 -7.945312 6.4375 -6.847656 6.21875 -5.828125 C 6 -4.804688 5.359375 -3.894531 4.296875 -3.09375 C 3.242188 -2.300781 2.195312 -1.941406 1.15625 -2.015625 C 0.125 -2.085938 -0.828125 -2.710938 -1.703125 -3.890625 Z M 0.21875 -5.34375 C 1.070312 -4.195312 2.015625 -4.015625 3.046875 -4.796875 C 4.078125 -5.578125 4.164062 -6.539062 3.3125 -7.6875 L 0.1875 -11.828125 C -0.675781 -12.960938 -1.625 -13.140625 -2.65625 -12.359375 C -3.6875 -11.578125 -3.769531 -10.617188 -2.90625 -9.484375 Z M 0.21875 -5.34375 "/></g></g><g style="fill:rgb(0%,45.489502%,41.958618%);fill-opacity:1;"><g transform="translate(158.719968, 121.517186)"><path style="stroke:none;" d="M 0.75 -1.109375 L -3.828125 -12.3125 C -3.898438 -12.488281 -3.875 -12.679688 -3.75 -12.890625 C -3.625 -13.097656 -3.414062 -13.265625 -3.125 -13.390625 L -0.078125 -14.625 C 1.148438 -15.125 2.257812 -15.207031 3.25 -14.875 C 4.238281 -14.550781 5.007812 -13.710938 5.5625 -12.359375 L 7.484375 -7.65625 C 8.035156 -6.289062 8.078125 -5.140625 7.609375 -4.203125 C 7.140625 -3.273438 6.289062 -2.5625 5.0625 -2.0625 L 2.015625 -0.828125 C 1.722656 -0.703125 1.457031 -0.671875 1.21875 -0.734375 C 0.976562 -0.804688 0.820312 -0.929688 0.75 -1.109375 Z M 2.46875 -3.3125 L 4.265625 -4.03125 C 5.460938 -4.519531 5.789062 -5.421875 5.25 -6.734375 L 3.328125 -11.4375 C 2.785156 -12.75 1.914062 -13.160156 0.71875 -12.671875 L -1.078125 -11.953125 Z M 2.46875 -3.3125 "/></g></g><g style="fill:rgb(0%,45.489502%,41.958618%);fill-opacity:1;"><g transform="translate(169.325283, 117.285427)"><path style="stroke:none;" d="M 0.921875 -0.984375 L -1.65625 -12.75 C -1.707031 -12.988281 -1.644531 -13.195312 -1.46875 -13.375 C -1.289062 -13.550781 -1.0625 -13.671875 -0.78125 -13.734375 L 5.671875 -15.140625 C 5.910156 -15.191406 6.117188 -15.128906 6.296875 -14.953125 C 6.472656 -14.773438 6.59375 -14.550781 6.65625 -14.28125 C 6.71875 -13.988281 6.703125 -13.726562 6.609375 -13.5 C 6.523438 -13.269531 6.363281 -13.128906 6.125 -13.078125 L 1 -11.953125 L 1.796875 -8.328125 L 4.5625 -8.9375 C 4.78125 -8.988281 4.976562 -8.929688 5.15625 -8.765625 C 5.332031 -8.597656 5.445312 -8.390625 5.5 -8.140625 C 5.550781 -7.910156 5.53125 -7.6875 5.4375 -7.46875 C 5.351562 -7.257812 5.195312 -7.128906 4.96875 -7.078125 L 2.203125 -6.46875 L 3 -2.828125 L 8.125 -3.953125 C 8.363281 -4.003906 8.570312 -3.9375 8.75 -3.75 C 8.925781 -3.570312 9.046875 -3.335938 9.109375 -3.046875 C 9.160156 -2.773438 9.144531 -2.523438 9.0625 -2.296875 C 8.976562 -2.066406 8.816406 -1.925781 8.578125 -1.875 L 2.125 -0.46875 C 1.84375 -0.40625 1.582031 -0.414062 1.34375 -0.5 C 1.101562 -0.582031 0.960938 -0.742188 0.921875 -0.984375 Z M 0.921875 -0.984375 "/></g></g><g style="fill:rgb(0%,45.489502%,41.958618%);fill-opacity:1;"><g transform="translate(184.616383, 114.641274)"><path style="stroke:none;" d="M 1.125 -4.109375 L 1.296875 -9.296875 C 1.335938 -10.753906 1.765625 -11.8125 2.578125 -12.46875 C 3.398438 -13.132812 4.453125 -13.445312 5.734375 -13.40625 C 7.035156 -13.363281 8.085938 -13.007812 8.890625 -12.34375 C 9.691406 -11.675781 10.070312 -10.804688 10.03125 -9.734375 C 10.019531 -9.273438 9.914062 -8.960938 9.71875 -8.796875 C 9.53125 -8.640625 9.21875 -8.566406 8.78125 -8.578125 C 7.988281 -8.609375 7.59375 -8.878906 7.59375 -9.390625 C 7.59375 -9.546875 7.582031 -9.679688 7.5625 -9.796875 C 7.550781 -9.921875 7.507812 -10.078125 7.4375 -10.265625 C 7.363281 -10.460938 7.265625 -10.628906 7.140625 -10.765625 C 7.023438 -10.898438 6.84375 -11.019531 6.59375 -11.125 C 6.351562 -11.226562 6.0625 -11.285156 5.71875 -11.296875 C 4.425781 -11.335938 3.757812 -10.644531 3.71875 -9.21875 L 3.546875 -4.03125 C 3.492188 -2.601562 4.128906 -1.867188 5.453125 -1.828125 C 5.847656 -1.804688 6.179688 -1.851562 6.453125 -1.96875 C 6.722656 -2.09375 6.921875 -2.265625 7.046875 -2.484375 C 7.171875 -2.710938 7.257812 -2.914062 7.3125 -3.09375 C 7.363281 -3.28125 7.394531 -3.503906 7.40625 -3.765625 C 7.46875 -4.265625 7.875 -4.5 8.625 -4.46875 C 9.0625 -4.457031 9.375 -4.363281 9.5625 -4.1875 C 9.75 -4.019531 9.835938 -3.707031 9.828125 -3.25 C 9.785156 -2.132812 9.34375 -1.253906 8.5 -0.609375 C 7.65625 0.0234375 6.570312 0.320312 5.25 0.28125 C 3.976562 0.238281 2.957031 -0.132812 2.1875 -0.84375 C 1.425781 -1.5625 1.070312 -2.648438 1.125 -4.109375 Z M 1.125 -4.109375 "/></g></g><g style="fill:rgb(0%,45.489502%,41.958618%);fill-opacity:1;"><g transform="translate(195.464558, 115.037018)"><path style="stroke:none;" d="M 1.8125 -3.84375 L 2.875 -8.921875 C 3.175781 -10.359375 3.78125 -11.328125 4.6875 -11.828125 C 5.59375 -12.335938 6.691406 -12.457031 7.984375 -12.1875 C 9.285156 -11.914062 10.253906 -11.363281 10.890625 -10.53125 C 11.523438 -9.695312 11.691406 -8.5625 11.390625 -7.125 L 10.328125 -2.046875 C 10.023438 -0.609375 9.414062 0.359375 8.5 0.859375 C 7.582031 1.359375 6.472656 1.472656 5.171875 1.203125 C 3.878906 0.929688 2.921875 0.382812 2.296875 -0.4375 C 1.671875 -1.269531 1.507812 -2.40625 1.8125 -3.84375 Z M 4.15625 -3.359375 C 3.851562 -1.960938 4.335938 -1.128906 5.609375 -0.859375 C 6.878906 -0.585938 7.664062 -1.148438 7.96875 -2.546875 L 9.03125 -7.625 C 9.320312 -9.019531 8.832031 -9.851562 7.5625 -10.125 C 6.289062 -10.394531 5.507812 -9.832031 5.21875 -8.4375 Z M 4.15625 -3.359375 "/></g></g><g style="fill:rgb(0%,45.489502%,41.958618%);fill-opacity:1;"><g transform="translate(206.456595, 117.408162)"><path style="stroke:none;" d="M 1.3125 -0.28125 L 5.84375 -11.484375 C 5.925781 -11.671875 6.0625 -11.800781 6.25 -11.875 C 6.445312 -11.957031 6.644531 -11.960938 6.84375 -11.890625 L 10.265625 -10.5 C 12.972656 -9.40625 13.84375 -7.660156 12.875 -5.265625 C 12.488281 -4.316406 11.976562 -3.632812 11.34375 -3.21875 C 10.71875 -2.800781 10.019531 -2.632812 9.25 -2.71875 L 9.78125 2.375 C 9.820312 2.46875 9.816406 2.570312 9.765625 2.6875 C 9.648438 2.976562 9.394531 3.1875 9 3.3125 C 8.601562 3.445312 8.238281 3.445312 7.90625 3.3125 C 7.570312 3.175781 7.390625 2.890625 7.359375 2.453125 L 6.828125 -3.296875 L 5.375 -3.875 L 3.546875 0.625 C 3.460938 0.84375 3.285156 0.96875 3.015625 1 C 2.753906 1.039062 2.46875 1 2.15625 0.875 C 1.851562 0.75 1.613281 0.578125 1.4375 0.359375 C 1.269531 0.148438 1.226562 -0.0625 1.3125 -0.28125 Z M 6.078125 -5.625 L 7.984375 -4.859375 C 9.210938 -4.359375 10.070312 -4.71875 10.5625 -5.9375 C 11.0625 -7.164062 10.695312 -8.03125 9.46875 -8.53125 L 7.5625 -9.296875 Z M 6.078125 -5.625 "/></g></g><g style="fill:rgb(0%,45.489502%,41.958618%);fill-opacity:1;"><g transform="translate(216.831921, 121.679882)"><path style="stroke:none;" d="M 1.34375 -0.0625 L 7.75 -10.296875 C 7.863281 -10.460938 8.023438 -10.5625 8.234375 -10.59375 C 8.453125 -10.625 8.679688 -10.566406 8.921875 -10.421875 L 12.09375 -8.4375 C 13.164062 -7.757812 13.847656 -6.929688 14.140625 -5.953125 C 14.441406 -4.984375 14.210938 -3.890625 13.453125 -2.671875 L 13.375 -2.5625 C 12.613281 -1.34375 11.710938 -0.65625 10.671875 -0.5 C 9.640625 -0.34375 8.566406 -0.613281 7.453125 -1.3125 L 5.703125 -2.421875 L 3.40625 1.21875 C 3.28125 1.425781 3.078125 1.523438 2.796875 1.515625 C 2.523438 1.503906 2.25 1.410156 1.96875 1.234375 C 1.6875 1.054688 1.476562 0.847656 1.34375 0.609375 C 1.21875 0.367188 1.21875 0.144531 1.34375 -0.0625 Z M 6.703125 -4.03125 L 8.453125 -2.921875 C 8.984375 -2.597656 9.484375 -2.492188 9.953125 -2.609375 C 10.429688 -2.734375 10.863281 -3.097656 11.25 -3.703125 L 11.359375 -3.890625 C 11.734375 -4.492188 11.875 -5.035156 11.78125 -5.515625 C 11.6875 -6.003906 11.375 -6.410156 10.84375 -6.734375 L 9.09375 -7.84375 Z M 6.703125 -4.03125 "/></g></g><g style="fill:rgb(0%,45.489502%,41.958618%);fill-opacity:1;"><g transform="translate(226.112507, 127.545119)"><path style="stroke:none;" d="M 3.5 -2.421875 L 6.96875 -6.265625 C 7.957031 -7.347656 8.972656 -7.878906 10.015625 -7.859375 C 11.054688 -7.847656 12.066406 -7.398438 13.046875 -6.515625 C 14.023438 -5.628906 14.578125 -4.664062 14.703125 -3.625 C 14.835938 -2.582031 14.410156 -1.519531 13.421875 -0.4375 L 9.953125 3.40625 C 8.960938 4.5 7.941406 5.03125 6.890625 5 C 5.847656 4.976562 4.835938 4.523438 3.859375 3.640625 C 2.878906 2.753906 2.328125 1.796875 2.203125 0.765625 C 2.078125 -0.265625 2.507812 -1.328125 3.5 -2.421875 Z M 5.28125 -0.8125 C 4.320312 0.25 4.320312 1.210938 5.28125 2.078125 C 6.25 2.953125 7.210938 2.859375 8.171875 1.796875 L 11.640625 -2.046875 C 12.597656 -3.097656 12.59375 -4.0625 11.625 -4.9375 C 10.664062 -5.800781 9.707031 -5.707031 8.75 -4.65625 Z M 5.28125 -0.8125 "/></g></g><g style="fill:rgb(0%,45.489502%,41.958618%);fill-opacity:1;"><g transform="translate(237.660048, 138.987955)"><path style="stroke:none;" d="M 4 -1.453125 L 8.34375 -4.296875 C 9.5625 -5.097656 10.671875 -5.359375 11.671875 -5.078125 C 12.679688 -4.796875 13.539062 -4.125 14.25 -3.0625 C 14.957031 -1.96875 15.269531 -0.898438 15.1875 0.140625 C 15.101562 1.179688 14.613281 2 13.71875 2.59375 C 13.332031 2.84375 13.019531 2.929688 12.78125 2.859375 C 12.550781 2.796875 12.3125 2.582031 12.0625 2.21875 C 11.632812 1.550781 11.628906 1.070312 12.046875 0.78125 C 12.171875 0.6875 12.273438 0.597656 12.359375 0.515625 C 12.441406 0.441406 12.539062 0.316406 12.65625 0.140625 C 12.78125 -0.0234375 12.863281 -0.195312 12.90625 -0.375 C 12.945312 -0.550781 12.9375 -0.765625 12.875 -1.015625 C 12.820312 -1.273438 12.703125 -1.546875 12.515625 -1.828125 C 11.804688 -2.910156 10.859375 -3.0625 9.671875 -2.28125 L 5.328125 0.5625 C 4.140625 1.351562 3.910156 2.300781 4.640625 3.40625 C 4.859375 3.738281 5.09375 3.976562 5.34375 4.125 C 5.59375 4.28125 5.84375 4.34375 6.09375 4.3125 C 6.351562 4.289062 6.570312 4.242188 6.75 4.171875 C 6.925781 4.109375 7.125 4.007812 7.34375 3.875 C 7.78125 3.644531 8.207031 3.84375 8.625 4.46875 C 8.863281 4.832031 8.960938 5.140625 8.921875 5.390625 C 8.890625 5.640625 8.679688 5.894531 8.296875 6.15625 C 7.367188 6.757812 6.398438 6.898438 5.390625 6.578125 C 4.378906 6.265625 3.515625 5.554688 2.796875 4.453125 C 2.097656 3.390625 1.816406 2.335938 1.953125 1.296875 C 2.097656 0.265625 2.78125 -0.648438 4 -1.453125 Z M 4 -1.453125 "/></g></g><g style="fill:rgb(0%,45.489502%,41.958618%);fill-opacity:1;"><g transform="translate(243.578243, 148.172611)"><path style="stroke:none;" d="M 1.15625 0.703125 L 12.1875 -4.203125 C 12.40625 -4.304688 12.617188 -4.273438 12.828125 -4.109375 C 13.046875 -3.941406 13.222656 -3.707031 13.359375 -3.40625 C 13.492188 -3.101562 13.550781 -2.816406 13.53125 -2.546875 C 13.507812 -2.285156 13.390625 -2.101562 13.171875 -2 L 3.375 2.359375 L 5.21875 6.5 C 5.3125 6.707031 5.285156 6.910156 5.140625 7.109375 C 5.003906 7.304688 4.804688 7.460938 4.546875 7.578125 C 4.285156 7.703125 4.03125 7.75 3.78125 7.71875 C 3.539062 7.6875 3.375 7.566406 3.28125 7.359375 L 0.890625 1.984375 C 0.773438 1.722656 0.734375 1.46875 0.765625 1.21875 C 0.804688 0.96875 0.9375 0.796875 1.15625 0.703125 Z M 1.15625 0.703125 "/></g></g><g style="fill:rgb(0%,45.489502%,41.958618%);fill-opacity:1;"><g transform="translate(247.456618, 157.357014)"><path style="stroke:none;" d="M 15.46875 -4.109375 C 15.71875 -4.191406 15.925781 -4.144531 16.09375 -3.96875 L 17.9375 -1.96875 C 18.007812 -1.863281 18.050781 -1.796875 18.0625 -1.765625 C 18.125 -1.566406 18.082031 -1.367188 17.9375 -1.171875 C 17.789062 -0.972656 17.613281 -0.84375 17.40625 -0.78125 C 17.132812 -0.695312 16.925781 -0.742188 16.78125 -0.921875 L 14.9375 -2.890625 C 14.851562 -3.003906 14.800781 -3.085938 14.78125 -3.140625 C 14.726562 -3.328125 14.773438 -3.519531 14.921875 -3.71875 C 15.066406 -3.914062 15.25 -4.046875 15.46875 -4.109375 Z M 1.0625 0.84375 L 12.609375 -2.6875 C 12.835938 -2.75 13.046875 -2.679688 13.234375 -2.484375 C 13.421875 -2.296875 13.5625 -2.039062 13.65625 -1.71875 C 13.757812 -1.40625 13.785156 -1.117188 13.734375 -0.859375 C 13.679688 -0.597656 13.539062 -0.4375 13.3125 -0.375 L 1.765625 3.15625 C 1.535156 3.21875 1.316406 3.15625 1.109375 2.96875 C 0.910156 2.78125 0.765625 2.535156 0.671875 2.234375 C 0.578125 1.910156 0.5625 1.613281 0.625 1.34375 C 0.6875 1.070312 0.832031 0.90625 1.0625 0.84375 Z M 1.0625 0.84375 "/></g></g><g style="fill:rgb(0%,45.489502%,41.958618%);fill-opacity:1;"><g transform="translate(249.22783, 162.606799)"><path style="stroke:none;" d="M 0.921875 0.96875 L 12.828125 -0.90625 C 13.078125 -0.945312 13.28125 -0.851562 13.4375 -0.625 C 13.601562 -0.40625 13.710938 -0.132812 13.765625 0.1875 C 13.835938 0.625 13.8125 0.96875 13.6875 1.21875 C 13.570312 1.476562 13.269531 1.789062 12.78125 2.15625 L 6.515625 6.765625 L 13.890625 5.609375 C 14.128906 5.566406 14.328125 5.65625 14.484375 5.875 C 14.640625 6.09375 14.742188 6.367188 14.796875 6.703125 C 14.847656 7.035156 14.832031 7.320312 14.75 7.5625 C 14.664062 7.8125 14.503906 7.957031 14.265625 8 L 2.328125 9.875 C 2.097656 9.914062 1.894531 9.828125 1.71875 9.609375 C 1.550781 9.398438 1.441406 9.132812 1.390625 8.8125 C 1.285156 8.164062 1.460938 7.664062 1.921875 7.3125 L 8.6875 2.203125 L 1.296875 3.359375 C 1.066406 3.398438 0.863281 3.3125 0.6875 3.09375 C 0.519531 2.882812 0.410156 2.617188 0.359375 2.296875 C 0.304688 1.972656 0.328125 1.679688 0.421875 1.421875 C 0.523438 1.160156 0.691406 1.007812 0.921875 0.96875 Z M 0.921875 0.96875 "/></g></g><g style="fill:rgb(0%,45.489502%,41.958618%);fill-opacity:1;"><g transform="translate(250.831481, 174.597329)"><path style="stroke:none;" d="M 0.78125 1.09375 L 12.859375 0.890625 C 13.097656 0.878906 13.28125 0.992188 13.40625 1.234375 C 13.539062 1.472656 13.609375 1.757812 13.609375 2.09375 C 13.617188 2.425781 13.5625 2.707031 13.4375 2.9375 C 13.320312 3.175781 13.144531 3.300781 12.90625 3.3125 L 0.828125 3.515625 C 0.585938 3.523438 0.394531 3.410156 0.25 3.171875 C 0.113281 2.929688 0.046875 2.648438 0.046875 2.328125 C 0.0351562 1.992188 0.09375 1.707031 0.21875 1.46875 C 0.351562 1.226562 0.539062 1.101562 0.78125 1.09375 Z M 0.78125 1.09375 "/></g></g><g style="fill:rgb(0%,45.489502%,41.958618%);fill-opacity:1;"><g transform="translate(251.047474, 180.178612)"><path style="stroke:none;" d="M 4 1.453125 L 9.15625 2.046875 C 10.601562 2.210938 11.617188 2.726562 12.203125 3.59375 C 12.796875 4.457031 13.019531 5.523438 12.875 6.796875 C 12.726562 8.085938 12.289062 9.101562 11.5625 9.84375 C 10.832031 10.59375 9.9375 10.910156 8.875 10.796875 C 8.414062 10.742188 8.113281 10.613281 7.96875 10.40625 C 7.820312 10.195312 7.773438 9.875 7.828125 9.4375 C 7.921875 8.65625 8.222656 8.285156 8.734375 8.328125 C 8.890625 8.335938 9.023438 8.335938 9.140625 8.328125 C 9.265625 8.328125 9.425781 8.296875 9.625 8.234375 C 9.820312 8.179688 9.992188 8.097656 10.140625 7.984375 C 10.285156 7.878906 10.414062 7.710938 10.53125 7.484375 C 10.65625 7.253906 10.738281 6.96875 10.78125 6.625 C 10.925781 5.34375 10.289062 4.617188 8.875 4.453125 L 3.71875 3.859375 C 2.300781 3.703125 1.519531 4.28125 1.375 5.59375 C 1.320312 5.976562 1.34375 6.304688 1.4375 6.578125 C 1.53125 6.859375 1.6875 7.070312 1.90625 7.21875 C 2.125 7.363281 2.316406 7.46875 2.484375 7.53125 C 2.660156 7.59375 2.878906 7.644531 3.140625 7.6875 C 3.628906 7.789062 3.832031 8.210938 3.75 8.953125 C 3.695312 9.390625 3.578125 9.691406 3.390625 9.859375 C 3.203125 10.035156 2.882812 10.097656 2.4375 10.046875 C 1.320312 9.921875 0.484375 9.410156 -0.078125 8.515625 C -0.648438 7.617188 -0.859375 6.515625 -0.703125 5.203125 C -0.554688 3.941406 -0.0976562 2.957031 0.671875 2.25 C 1.441406 1.550781 2.550781 1.285156 4 1.453125 Z M 4 1.453125 "/></g></g><g style="fill:rgb(0%,45.489502%,41.958618%);fill-opacity:1;"><g transform="translate(249.768592, 190.957549)"><path style="stroke:none;" d="M 3.6875 2.109375 L 8.65625 3.578125 C 10.0625 3.992188 10.976562 4.675781 11.40625 5.625 C 11.84375 6.582031 11.875 7.695312 11.5 8.96875 C 11.125 10.238281 10.492188 11.148438 9.609375 11.703125 C 8.722656 12.265625 7.578125 12.335938 6.171875 11.921875 L 1.203125 10.453125 C -0.203125 10.023438 -1.117188 9.335938 -1.546875 8.390625 C -1.972656 7.441406 -2 6.332031 -1.625 5.0625 C -1.25 3.789062 -0.625 2.875 0.25 2.3125 C 1.132812 1.75 2.28125 1.679688 3.6875 2.109375 Z M 3 4.421875 C 1.632812 4.015625 0.769531 4.429688 0.40625 5.671875 C 0.03125 6.921875 0.523438 7.75 1.890625 8.15625 L 6.859375 9.625 C 8.234375 10.03125 9.109375 9.609375 9.484375 8.359375 C 9.847656 7.117188 9.34375 6.296875 7.96875 5.890625 Z M 3 4.421875 "/></g></g><g clip-rule="nonzero" clip-path="url(#clip1)"><path style=" stroke:none;fill-rule:nonzero;fill:rgb(0%,45.489502%,41.958618%);fill-opacity:1;" d="M 132.304688 222.707031 C 132.648438 223.152344 132.578125 223.800781 132.132812 224.144531 C 131.929688 224.28125 131.726562 224.382812 131.484375 224.382812 C 131.179688 224.382812 130.871094 224.246094 130.667969 224.007812 C 130.324219 223.5625 130.394531 222.914062 130.835938 222.570312 C 131.28125 222.195312 131.929688 222.265625 132.304688 222.707031 Z M 146.066406 122.144531 C 146.273438 122.144531 146.476562 122.078125 146.648438 121.941406 C 147.125 121.597656 147.226562 120.984375 146.886719 120.507812 C 146.542969 120.027344 145.929688 119.925781 145.453125 120.265625 C 144.972656 120.609375 144.871094 121.222656 145.214844 121.703125 C 145.417969 122.007812 145.757812 122.144531 146.066406 122.144531 Z M 151.769531 118.457031 C 151.941406 118.457031 152.109375 118.421875 152.28125 118.320312 C 152.757812 118.046875 152.929688 117.398438 152.65625 116.921875 C 152.382812 116.441406 151.734375 116.273438 151.257812 116.546875 C 150.777344 116.816406 150.609375 117.46875 150.882812 117.945312 C 151.085938 118.285156 151.429688 118.457031 151.769531 118.457031 Z M 146.785156 236.503906 C 146.304688 236.164062 145.691406 236.300781 145.347656 236.742188 C 145.007812 237.222656 145.144531 237.835938 145.589844 238.175781 C 145.757812 238.3125 145.964844 238.382812 146.167969 238.382812 C 146.476562 238.382812 146.816406 238.246094 146.988281 237.9375 C 147.363281 237.496094 147.261719 236.847656 146.785156 236.503906 Z M 136.675781 227.761719 C 136.300781 227.351562 135.652344 227.351562 135.242188 227.726562 C 134.832031 228.105469 134.832031 228.753906 135.207031 229.164062 C 135.414062 229.367188 135.6875 229.46875 135.960938 229.46875 C 136.199219 229.46875 136.472656 229.367188 136.675781 229.195312 C 137.050781 228.820312 137.085938 228.171875 136.675781 227.761719 Z M 140.089844 232.476562 C 139.714844 232.917969 139.75 233.535156 140.191406 233.910156 C 140.398438 234.078125 140.636719 234.148438 140.875 234.148438 C 141.148438 234.148438 141.457031 234.046875 141.660156 233.808594 C 142.039062 233.398438 142.003906 232.714844 141.558594 232.371094 C 141.117188 231.996094 140.464844 232.066406 140.089844 232.476562 Z M 140.738281 126.34375 C 140.980469 126.34375 141.21875 126.277344 141.421875 126.105469 C 141.832031 125.730469 141.902344 125.082031 141.523438 124.671875 C 141.148438 124.261719 140.5 124.195312 140.089844 124.570312 C 139.679688 124.945312 139.613281 125.59375 139.988281 126.003906 C 140.160156 126.242188 140.433594 126.34375 140.738281 126.34375 Z M 135.824219 131.058594 C 136.09375 131.058594 136.367188 130.957031 136.574219 130.75 C 136.949219 130.339844 136.949219 129.691406 136.539062 129.316406 C 136.128906 128.941406 135.480469 128.941406 135.105469 129.351562 C 134.730469 129.761719 134.730469 130.410156 135.140625 130.785156 C 135.308594 130.957031 135.582031 131.058594 135.824219 131.058594 Z M 170.617188 110.875 C 170.6875 110.875 170.789062 110.875 170.859375 110.84375 C 171.402344 110.707031 171.746094 110.160156 171.609375 109.613281 C 171.472656 109.066406 170.925781 108.726562 170.378906 108.863281 C 169.832031 109 169.492188 109.546875 169.628906 110.089844 C 169.730469 110.570312 170.140625 110.875 170.617188 110.875 Z M 170.992188 247.566406 C 170.449219 247.429688 169.902344 247.773438 169.765625 248.320312 C 169.628906 248.867188 169.96875 249.410156 170.515625 249.546875 C 170.585938 249.546875 170.6875 249.582031 170.753906 249.582031 C 171.234375 249.582031 171.644531 249.273438 171.746094 248.796875 C 171.882812 248.25 171.539062 247.703125 170.992188 247.566406 Z M 177.277344 109.578125 C 177.3125 109.578125 177.378906 109.578125 177.414062 109.578125 C 177.960938 109.511719 178.371094 108.964844 178.265625 108.417969 C 178.199219 107.871094 177.652344 107.460938 177.105469 107.5625 C 176.558594 107.632812 176.148438 108.179688 176.253906 108.726562 C 176.320312 109.238281 176.765625 109.578125 177.277344 109.578125 Z M 164.574219 245.691406 C 164.027344 245.519531 163.449219 245.792969 163.277344 246.339844 C 163.105469 246.886719 163.378906 247.464844 163.925781 247.636719 C 164.027344 247.671875 164.164062 247.703125 164.265625 247.703125 C 164.675781 247.703125 165.085938 247.429688 165.222656 247.023438 C 165.394531 246.441406 165.121094 245.859375 164.574219 245.691406 Z M 152.417969 240.125 C 151.941406 239.851562 151.292969 240.019531 151.019531 240.5 C 150.746094 240.976562 150.914062 241.625 151.394531 241.898438 C 151.5625 242.003906 151.734375 242.035156 151.90625 242.035156 C 152.246094 242.035156 152.589844 241.867188 152.792969 241.523438 C 153.066406 241.046875 152.894531 240.398438 152.417969 240.125 Z M 164.097656 112.789062 C 164.199219 112.789062 164.300781 112.753906 164.4375 112.71875 C 164.984375 112.515625 165.257812 111.933594 165.085938 111.421875 C 164.882812 110.875 164.300781 110.605469 163.789062 110.808594 C 163.242188 110.980469 162.96875 111.59375 163.175781 112.105469 C 163.277344 112.550781 163.652344 112.789062 164.097656 112.789062 Z M 157.8125 115.351562 C 157.949219 115.351562 158.085938 115.316406 158.222656 115.246094 C 158.734375 115.007812 158.972656 114.394531 158.734375 113.882812 C 158.496094 113.371094 157.882812 113.128906 157.371094 113.371094 C 156.855469 113.609375 156.617188 114.222656 156.855469 114.734375 C 157.027344 115.109375 157.402344 115.351562 157.8125 115.351562 Z M 158.359375 243.195312 C 157.847656 242.957031 157.234375 243.195312 156.992188 243.710938 C 156.753906 244.222656 156.992188 244.835938 157.507812 245.074219 C 157.640625 245.144531 157.777344 245.175781 157.914062 245.175781 C 158.292969 245.175781 158.667969 244.9375 158.835938 244.5625 C 159.109375 244.050781 158.871094 243.4375 158.359375 243.195312 Z M 177.585938 248.796875 C 177.039062 248.730469 176.492188 249.105469 176.421875 249.652344 C 176.355469 250.199219 176.730469 250.742188 177.277344 250.8125 C 177.3125 250.8125 177.378906 250.8125 177.414062 250.8125 C 177.925781 250.8125 178.371094 250.4375 178.4375 249.925781 C 178.507812 249.410156 178.128906 248.898438 177.585938 248.796875 Z M 117.246094 166.777344 C 117.316406 166.777344 117.382812 166.808594 117.453125 166.808594 C 117.929688 166.808594 118.375 166.46875 118.441406 165.992188 C 118.542969 165.445312 118.167969 164.898438 117.621094 164.796875 C 117.074219 164.691406 116.53125 165.066406 116.425781 165.613281 C 116.324219 166.125 116.699219 166.671875 117.246094 166.777344 Z M 116.394531 173.503906 C 116.425781 173.503906 116.460938 173.503906 116.496094 173.503906 C 117.007812 173.503906 117.453125 173.09375 117.519531 172.582031 C 117.585938 172.035156 117.144531 171.523438 116.597656 171.453125 C 116.050781 171.386719 115.539062 171.828125 115.472656 172.375 C 115.4375 172.957031 115.847656 173.46875 116.394531 173.503906 Z M 117.210938 179.273438 C 117.210938 178.691406 116.734375 178.25 116.1875 178.25 C 115.605469 178.25 115.164062 178.726562 115.164062 179.273438 C 115.164062 179.855469 115.605469 180.296875 116.1875 180.296875 C 116.769531 180.296875 117.210938 179.820312 117.210938 179.273438 Z M 116.597656 187.058594 C 117.144531 186.992188 117.585938 186.511719 117.519531 185.933594 C 117.453125 185.351562 116.972656 184.941406 116.394531 185.011719 C 115.8125 185.078125 115.402344 185.558594 115.472656 186.136719 C 115.503906 186.648438 115.984375 187.058594 116.496094 187.058594 C 116.53125 187.058594 116.5625 187.058594 116.597656 187.058594 Z M 256.566406 165.71875 C 256.667969 166.195312 257.078125 166.535156 257.558594 166.535156 C 257.625 166.535156 257.695312 166.535156 257.761719 166.503906 C 258.308594 166.398438 258.683594 165.855469 258.582031 165.308594 C 258.480469 164.761719 257.933594 164.386719 257.386719 164.488281 C 256.839844 164.625 256.464844 165.171875 256.566406 165.71875 Z M 257.558594 172.339844 C 257.589844 172.855469 258.070312 173.261719 258.582031 173.261719 C 258.617188 173.261719 258.648438 173.261719 258.683594 173.261719 C 259.265625 173.195312 259.675781 172.71875 259.605469 172.136719 C 259.539062 171.554688 259.058594 171.148438 258.480469 171.214844 C 257.898438 171.28125 257.488281 171.796875 257.558594 172.339844 Z M 118.75 160.152344 C 118.851562 160.183594 118.953125 160.183594 119.054688 160.183594 C 119.5 160.183594 119.910156 159.914062 120.046875 159.433594 C 120.21875 158.886719 119.910156 158.308594 119.363281 158.171875 C 118.816406 158 118.238281 158.308594 118.101562 158.855469 C 117.894531 159.433594 118.203125 159.980469 118.75 160.152344 Z M 118.476562 192.558594 C 118.375 192.011719 117.828125 191.636719 117.28125 191.738281 C 116.734375 191.839844 116.359375 192.386719 116.460938 192.933594 C 116.5625 193.410156 116.972656 193.753906 117.453125 193.753906 C 117.519531 193.753906 117.585938 193.753906 117.65625 193.71875 C 118.238281 193.648438 118.578125 193.136719 118.476562 192.558594 Z M 123.597656 147.484375 C 123.734375 147.550781 123.90625 147.585938 124.074219 147.585938 C 124.453125 147.585938 124.792969 147.378906 124.996094 147.039062 C 125.269531 146.527344 125.066406 145.910156 124.554688 145.671875 C 124.042969 145.398438 123.425781 145.605469 123.1875 146.117188 C 122.878906 146.59375 123.085938 147.210938 123.597656 147.484375 Z M 123.667969 211.03125 C 123.152344 211.304688 122.984375 211.917969 123.222656 212.394531 C 123.394531 212.738281 123.769531 212.941406 124.144531 212.941406 C 124.316406 212.941406 124.453125 212.910156 124.621094 212.839844 C 125.132812 212.566406 125.339844 211.953125 125.066406 211.472656 C 124.792969 210.960938 124.179688 210.792969 123.667969 211.03125 Z M 126.910156 141.539062 C 127.082031 141.644531 127.285156 141.710938 127.457031 141.710938 C 127.796875 141.710938 128.140625 141.539062 128.308594 141.234375 C 128.617188 140.753906 128.480469 140.140625 128.003906 139.832031 C 127.523438 139.527344 126.910156 139.664062 126.601562 140.140625 C 126.296875 140.617188 126.433594 141.234375 126.910156 141.539062 Z M 126.976562 216.972656 C 126.5 217.28125 126.363281 217.929688 126.671875 218.40625 C 126.875 218.714844 127.183594 218.882812 127.523438 218.882812 C 127.730469 218.882812 127.898438 218.851562 128.070312 218.714844 C 128.550781 218.40625 128.6875 217.757812 128.378906 217.28125 C 128.105469 216.800781 127.457031 216.664062 126.976562 216.972656 Z M 130.769531 135.976562 C 130.9375 136.113281 131.179688 136.179688 131.382812 136.179688 C 131.691406 136.179688 131.996094 136.042969 132.203125 135.804688 C 132.542969 135.359375 132.476562 134.710938 132.03125 134.371094 C 131.589844 134.027344 130.9375 134.097656 130.597656 134.539062 C 130.222656 134.949219 130.324219 135.597656 130.769531 135.976562 Z M 120.867188 153.699219 C 121.003906 153.765625 121.105469 153.765625 121.242188 153.765625 C 121.652344 153.765625 122.027344 153.527344 122.199219 153.117188 C 122.402344 152.605469 122.164062 151.988281 121.617188 151.785156 C 121.105469 151.582031 120.492188 151.820312 120.285156 152.367188 C 120.082031 152.878906 120.355469 153.492188 120.867188 153.699219 Z M 120.933594 204.816406 C 120.421875 205.019531 120.148438 205.636719 120.355469 206.148438 C 120.523438 206.558594 120.898438 206.796875 121.308594 206.796875 C 121.445312 206.796875 121.582031 206.761719 121.683594 206.726562 C 122.199219 206.523438 122.472656 205.910156 122.265625 205.394531 C 122.0625 204.851562 121.445312 204.609375 120.933594 204.816406 Z M 118.78125 198.363281 C 118.238281 198.53125 117.929688 199.078125 118.101562 199.625 C 118.238281 200.070312 118.644531 200.34375 119.089844 200.34375 C 119.191406 200.34375 119.296875 200.34375 119.363281 200.308594 C 119.910156 200.136719 120.21875 199.589844 120.046875 199.042969 C 119.910156 198.53125 119.328125 198.226562 118.78125 198.363281 Z M 248.132812 216.902344 C 247.65625 216.597656 247.039062 216.734375 246.699219 217.210938 C 246.390625 217.6875 246.527344 218.304688 247.003906 218.609375 C 247.175781 218.714844 247.382812 218.78125 247.550781 218.78125 C 247.894531 218.78125 248.199219 218.609375 248.40625 218.304688 C 248.746094 217.824219 248.609375 217.210938 248.132812 216.902344 Z M 243.558594 135.976562 C 243.796875 135.976562 244 135.90625 244.207031 135.734375 C 244.648438 135.394531 244.71875 134.746094 244.375 134.300781 C 244.035156 133.859375 243.386719 133.789062 242.941406 134.132812 C 242.5 134.472656 242.429688 135.121094 242.773438 135.566406 C 242.941406 135.871094 243.25 135.976562 243.558594 135.976562 Z M 247.484375 141.507812 C 247.6875 141.507812 247.859375 141.4375 248.03125 141.335938 C 248.507812 141.027344 248.644531 140.378906 248.335938 139.9375 C 248.03125 139.457031 247.382812 139.320312 246.9375 139.628906 C 246.460938 139.9375 246.324219 140.585938 246.628906 141.0625 C 246.835938 141.335938 247.140625 141.507812 247.484375 141.507812 Z M 244.273438 222.46875 C 243.832031 222.128906 243.179688 222.195312 242.839844 222.640625 C 242.5 223.085938 242.566406 223.734375 243.011719 224.074219 C 243.214844 224.210938 243.421875 224.28125 243.660156 224.28125 C 243.964844 224.28125 244.273438 224.144531 244.480469 223.902344 C 244.785156 223.460938 244.71875 222.8125 244.273438 222.46875 Z M 250.898438 147.378906 C 251.070312 147.378906 251.207031 147.347656 251.375 147.277344 C 251.890625 147.003906 252.058594 146.390625 251.820312 145.910156 C 251.546875 145.398438 250.933594 145.230469 250.453125 145.46875 C 249.941406 145.742188 249.773438 146.355469 250.011719 146.832031 C 250.179688 147.175781 250.523438 147.378906 250.898438 147.378906 Z M 251.445312 210.960938 C 250.933594 210.6875 250.316406 210.894531 250.078125 211.40625 C 249.804688 211.917969 250.011719 212.53125 250.523438 212.773438 C 250.660156 212.839844 250.832031 212.875 251 212.875 C 251.375 212.875 251.71875 212.667969 251.921875 212.328125 C 252.160156 211.851562 251.957031 211.234375 251.445312 210.960938 Z M 238.433594 227.695312 C 238.058594 228.105469 238.058594 228.753906 238.46875 229.128906 C 238.675781 229.332031 238.914062 229.402344 239.1875 229.402344 C 239.460938 229.402344 239.730469 229.300781 239.9375 229.09375 C 240.347656 228.683594 240.3125 228.035156 239.902344 227.660156 C 239.492188 227.285156 238.84375 227.285156 238.433594 227.695312 Z M 233.621094 232.339844 C 233.210938 232.714844 233.140625 233.363281 233.519531 233.773438 C 233.722656 234.011719 233.996094 234.113281 234.304688 234.113281 C 234.542969 234.113281 234.78125 234.046875 234.984375 233.875 C 235.394531 233.5 235.464844 232.851562 235.089844 232.441406 C 234.679688 231.996094 234.03125 231.960938 233.621094 232.339844 Z M 239.082031 130.851562 C 239.324219 130.851562 239.597656 130.75 239.800781 130.578125 C 240.210938 130.203125 240.210938 129.519531 239.835938 129.144531 C 239.460938 128.734375 238.808594 128.734375 238.402344 129.113281 C 237.992188 129.488281 237.992188 130.136719 238.367188 130.546875 C 238.539062 130.75 238.808594 130.851562 239.082031 130.851562 Z M 255.988281 159.945312 C 256.089844 159.945312 256.191406 159.945312 256.257812 159.914062 C 256.804688 159.742188 257.113281 159.195312 256.941406 158.648438 C 256.773438 158.101562 256.226562 157.796875 255.679688 157.964844 C 255.132812 158.136719 254.824219 158.683594 254.996094 159.230469 C 255.132812 159.671875 255.542969 159.945312 255.988281 159.945312 Z M 258.683594 184.941406 C 258.136719 184.875 257.625 185.316406 257.558594 185.863281 C 257.488281 186.445312 257.933594 186.921875 258.480469 186.992188 C 258.511719 186.992188 258.546875 186.992188 258.582031 186.992188 C 259.09375 186.992188 259.539062 186.582031 259.605469 186.070312 C 259.640625 185.488281 259.230469 185.011719 258.683594 184.941406 Z M 257.796875 191.667969 C 257.25 191.566406 256.703125 191.941406 256.601562 192.488281 C 256.5 193.035156 256.875 193.582031 257.421875 193.683594 C 257.488281 193.683594 257.558594 193.683594 257.625 193.683594 C 258.105469 193.683594 258.546875 193.34375 258.617188 192.863281 C 258.71875 192.316406 258.375 191.769531 257.796875 191.667969 Z M 259.914062 179.035156 C 259.914062 178.453125 259.433594 178.011719 258.890625 178.011719 C 258.308594 178.011719 257.863281 178.453125 257.863281 179.035156 C 257.863281 179.070312 257.863281 179.101562 257.863281 179.101562 C 257.863281 179.136719 257.863281 179.136719 257.863281 179.171875 C 257.863281 179.71875 258.308594 180.195312 258.890625 180.195312 C 259.433594 180.195312 259.914062 179.75 259.914062 179.171875 C 259.914062 179.136719 259.914062 179.101562 259.914062 179.101562 C 259.914062 179.101562 259.914062 179.035156 259.914062 179.035156 Z M 254.175781 204.746094 C 253.664062 204.542969 253.050781 204.78125 252.84375 205.328125 C 252.640625 205.839844 252.878906 206.453125 253.425781 206.660156 C 253.5625 206.695312 253.699219 206.726562 253.800781 206.726562 C 254.210938 206.726562 254.585938 206.488281 254.757812 206.078125 C 254.960938 205.566406 254.722656 204.953125 254.175781 204.746094 Z M 253.734375 153.5625 C 253.871094 153.5625 254.007812 153.527344 254.109375 153.492188 C 254.621094 153.289062 254.894531 152.671875 254.6875 152.160156 C 254.484375 151.648438 253.871094 151.375 253.355469 151.582031 C 252.84375 151.785156 252.570312 152.398438 252.777344 152.910156 C 252.949219 153.289062 253.324219 153.5625 253.734375 153.5625 Z M 234.167969 126.207031 C 234.441406 126.207031 234.746094 126.070312 234.953125 125.867188 C 235.328125 125.421875 235.292969 124.773438 234.847656 124.433594 C 234.441406 124.058594 233.757812 124.089844 233.414062 124.535156 C 233.039062 124.945312 233.109375 125.59375 233.519531 125.96875 C 233.6875 126.105469 233.925781 126.207031 234.167969 126.207031 Z M 184.003906 108.929688 L 184.039062 108.929688 C 184.617188 108.894531 185.027344 108.417969 185.027344 107.835938 C 184.996094 107.292969 184.515625 106.847656 183.96875 106.882812 C 183.390625 106.914062 182.980469 107.394531 183.015625 107.941406 C 183.015625 108.519531 183.492188 108.929688 184.003906 108.929688 Z M 256.292969 198.292969 C 255.746094 198.121094 255.167969 198.429688 255.03125 198.976562 C 254.859375 199.523438 255.167969 200.070312 255.714844 200.238281 C 255.816406 200.273438 255.917969 200.273438 255.988281 200.273438 C 256.429688 200.273438 256.839844 199.96875 256.976562 199.523438 C 257.148438 199.042969 256.839844 198.464844 256.292969 198.292969 Z M 197.59375 248.796875 C 197.046875 248.867188 196.636719 249.410156 196.742188 249.957031 C 196.808594 250.46875 197.253906 250.847656 197.765625 250.847656 C 197.800781 250.847656 197.867188 250.847656 197.902344 250.847656 C 198.449219 250.777344 198.859375 250.230469 198.753906 249.683594 C 198.652344 249.105469 198.140625 248.730469 197.59375 248.796875 Z M 204.015625 110.808594 C 204.082031 110.84375 204.183594 110.84375 204.253906 110.84375 C 204.730469 110.84375 205.140625 110.535156 205.242188 110.058594 C 205.378906 109.511719 205.039062 108.964844 204.492188 108.828125 C 203.945312 108.691406 203.398438 109.03125 203.261719 109.578125 C 203.125 110.125 203.433594 110.671875 204.015625 110.808594 Z M 197.425781 109.546875 C 197.457031 109.546875 197.527344 109.546875 197.5625 109.546875 C 198.074219 109.546875 198.515625 109.167969 198.585938 108.65625 C 198.652344 108.109375 198.277344 107.5625 197.730469 107.496094 C 197.183594 107.429688 196.636719 107.804688 196.570312 108.382812 C 196.46875 108.964844 196.878906 109.476562 197.425781 109.546875 Z M 204.152344 247.535156 C 203.605469 247.671875 203.261719 248.214844 203.398438 248.761719 C 203.503906 249.242188 203.945312 249.546875 204.390625 249.546875 C 204.457031 249.546875 204.5625 249.546875 204.628906 249.515625 C 205.175781 249.378906 205.515625 248.832031 205.378906 248.285156 C 205.242188 247.738281 204.699219 247.398438 204.152344 247.535156 Z M 184.242188 249.445312 C 183.695312 249.410156 183.183594 249.855469 183.183594 250.402344 C 183.152344 250.984375 183.59375 251.460938 184.175781 251.460938 L 184.210938 251.460938 C 184.753906 251.460938 185.199219 251.050781 185.234375 250.46875 C 185.234375 249.957031 184.789062 249.445312 184.242188 249.445312 Z M 190.765625 108.929688 L 190.800781 108.929688 C 191.347656 108.929688 191.789062 108.519531 191.824219 107.941406 C 191.859375 107.394531 191.414062 106.882812 190.832031 106.882812 C 190.253906 106.847656 189.773438 107.292969 189.773438 107.871094 C 189.773438 108.417969 190.21875 108.894531 190.765625 108.929688 Z M 190.9375 249.445312 C 190.355469 249.480469 189.945312 249.957031 189.945312 250.503906 C 189.980469 251.050781 190.425781 251.496094 190.96875 251.496094 L 191.039062 251.496094 C 191.585938 251.460938 192.027344 250.984375 191.996094 250.4375 C 191.960938 249.855469 191.480469 249.410156 190.9375 249.445312 Z M 216.785156 243.164062 C 216.273438 243.402344 216.035156 244.015625 216.273438 244.527344 C 216.445312 244.90625 216.820312 245.144531 217.195312 245.144531 C 217.332031 245.144531 217.46875 245.109375 217.605469 245.042969 C 218.117188 244.800781 218.355469 244.1875 218.117188 243.675781 C 217.914062 243.164062 217.296875 242.925781 216.785156 243.164062 Z M 210.433594 112.652344 C 210.535156 112.6875 210.671875 112.71875 210.777344 112.71875 C 211.183594 112.71875 211.59375 112.449219 211.730469 112.039062 C 211.902344 111.492188 211.628906 110.910156 211.082031 110.738281 C 210.535156 110.570312 209.957031 110.84375 209.785156 111.390625 C 209.613281 111.902344 209.886719 112.480469 210.433594 112.652344 Z M 222.726562 240.089844 C 222.25 240.363281 222.078125 241.011719 222.351562 241.488281 C 222.554688 241.832031 222.898438 242.003906 223.238281 242.003906 C 223.410156 242.003906 223.582031 241.96875 223.75 241.867188 C 224.230469 241.59375 224.398438 240.945312 224.128906 240.464844 C 223.855469 239.988281 223.207031 239.816406 222.726562 240.089844 Z M 228.226562 121.804688 C 228.394531 121.941406 228.601562 122.007812 228.804688 122.007812 C 229.113281 122.007812 229.453125 121.871094 229.660156 121.566406 C 230 121.085938 229.863281 120.472656 229.421875 120.128906 C 228.941406 119.789062 228.328125 119.925781 227.984375 120.371094 C 227.644531 120.8125 227.78125 121.496094 228.226562 121.804688 Z M 222.589844 118.183594 C 222.761719 118.285156 222.933594 118.320312 223.101562 118.320312 C 223.445312 118.320312 223.785156 118.148438 223.992188 117.808594 C 224.265625 117.332031 224.09375 116.683594 223.613281 116.410156 C 223.136719 116.136719 222.488281 116.304688 222.214844 116.785156 C 221.941406 117.296875 222.113281 117.910156 222.589844 118.183594 Z M 228.363281 236.46875 C 227.917969 236.8125 227.78125 237.425781 228.121094 237.90625 C 228.328125 238.175781 228.632812 238.3125 228.941406 238.3125 C 229.148438 238.3125 229.351562 238.246094 229.523438 238.109375 C 229.964844 237.769531 230.101562 237.152344 229.761719 236.675781 C 229.453125 236.230469 228.804688 236.128906 228.363281 236.46875 Z M 210.570312 245.65625 C 210.023438 245.828125 209.75 246.40625 209.921875 246.953125 C 210.058594 247.363281 210.46875 247.636719 210.878906 247.636719 C 210.980469 247.636719 211.082031 247.636719 211.21875 247.566406 C 211.765625 247.398438 212.039062 246.816406 211.835938 246.269531 C 211.699219 245.757812 211.117188 245.484375 210.570312 245.65625 Z M 216.648438 115.144531 C 216.785156 115.214844 216.921875 115.246094 217.058594 115.246094 C 217.433594 115.246094 217.808594 115.042969 217.980469 114.632812 C 218.21875 114.121094 217.980469 113.507812 217.46875 113.265625 C 216.957031 113.027344 216.339844 113.265625 216.101562 113.777344 C 215.898438 114.292969 216.136719 114.90625 216.648438 115.144531 Z M 216.648438 115.144531 "/></g><g clip-rule="nonzero" clip-path="url(#clip2)"><path style=" stroke:none;fill-rule:nonzero;fill:rgb(0%,45.489502%,41.958618%);fill-opacity:1;" d="M 231.800781 145.144531 L 226.789062 143.558594 C 225.273438 143.082031 223.65625 143.921875 223.175781 145.4375 L 220.5625 153.730469 L 231.0625 157.046875 L 233.679688 148.753906 C 234.160156 147.238281 233.316406 145.621094 231.800781 145.144531 Z M 230.335938 159.34375 L 217.300781 200.648438 L 209.179688 208.085938 L 206.800781 197.332031 L 219.835938 156.027344 L 230.335938 159.34375 "/></g><g clip-rule="nonzero" clip-path="url(#clip3)"><path style=" stroke:none;fill-rule:nonzero;fill:rgb(0%,45.489502%,41.958618%);fill-opacity:1;" d="M 177.339844 167.003906 L 205.65625 167.003906 C 206.59375 167.003906 207.347656 167.765625 207.347656 168.703125 C 207.347656 169.636719 206.59375 170.398438 205.65625 170.398438 L 177.339844 170.398438 C 176.398438 170.398438 175.636719 169.636719 175.636719 168.703125 C 175.636719 167.765625 176.398438 167.003906 177.339844 167.003906 Z M 177.339844 149.523438 L 205.65625 149.523438 C 206.59375 149.523438 207.347656 150.285156 207.347656 151.222656 C 207.347656 152.15625 206.59375 152.917969 205.65625 152.917969 L 177.339844 152.917969 C 176.398438 152.917969 175.636719 152.15625 175.636719 151.222656 C 175.636719 150.285156 176.398438 149.523438 177.339844 149.523438 Z M 169.980469 155.878906 L 160.664062 155.878906 L 160.664062 146.5625 L 169.980469 146.5625 Z M 169.980469 173.359375 L 160.664062 173.359375 L 160.664062 164.042969 L 169.980469 164.042969 Z M 169.980469 190.839844 L 160.664062 190.839844 L 160.664062 181.523438 L 169.980469 181.523438 Z M 169.980469 208.316406 L 160.664062 208.316406 L 160.664062 199.003906 L 169.980469 199.003906 Z M 177.339844 184.480469 L 205.65625 184.480469 C 206.398438 184.480469 207.019531 184.964844 207.25 185.625 L 213.820312 164.808594 L 213.820312 141.363281 L 155.285156 141.363281 L 155.285156 217.835938 L 213.820312 217.835938 L 213.820312 208.03125 L 207.316406 213.988281 L 205.40625 205.351562 L 177.339844 205.351562 C 176.398438 205.351562 175.636719 204.597656 175.636719 203.65625 C 175.636719 202.722656 176.398438 201.960938 177.339844 201.960938 L 204.65625 201.960938 L 203.601562 197.191406 L 206.640625 187.558594 C 206.363281 187.761719 206.023438 187.878906 205.65625 187.878906 L 177.339844 187.878906 C 176.398438 187.878906 175.636719 187.117188 175.636719 186.179688 C 175.636719 185.246094 176.398438 184.480469 177.339844 184.480469 "/></g></g></svg>