<?xml version="1.0" encoding="UTF-8"?><svg xmlns="http://www.w3.org/2000/svg" xmlns:xlink="http://www.w3.org/1999/xlink" width="375pt" zoomAndPan="magnify" viewBox="0 0 375 374.999991" height="374.999991pt" preserveAspectRatio="xMidYMid meet" version="1.2"><defs><g/><clipPath xml:id="clip1" id="clip1"><path d="M 46.617188 289.332031 L 328.519531 289.332031 L 328.519531 361.332031 L 46.617188 361.332031 Z M 46.617188 289.332031 "/></clipPath><clipPath xml:id="clip2" id="clip2"><path d="M 230 116.050781 L 290.226562 116.050781 L 290.226562 261 L 230 261 Z M 230 116.050781 "/></clipPath><clipPath xml:id="clip3" id="clip3"><path d="M 115.964844 112.425781 L 246 112.425781 L 246 281.863281 L 115.964844 281.863281 Z M 115.964844 112.425781 "/></clipPath></defs><g xml:id="surface1" id="surface1"><rect x="0" width="375" y="0" height="374.999991" style="fill:rgb(100%,100%,100%);fill-opacity:1;stroke:none;"/><rect x="0" width="375" y="0" height="374.999991" style="fill:rgb(100%,100%,100%);fill-opacity:1;stroke:none;"/><rect x="0" width="375" y="0" height="374.999991" style="fill:rgb(100%,100%,100%);fill-opacity:1;stroke:none;"/><g style="fill:rgb(0%,45.489502%,41.958618%);fill-opacity:1;"><g transform="translate(73.50404, 279.541446)"><path style="stroke:none;" d="M -21.71875 -16.765625 C -18.914062 -18.222656 -16.191406 -18.53125 -13.546875 -17.6875 C -10.898438 -16.84375 -8.679688 -14.957031 -6.890625 -12.03125 C -4.921875 -8.820312 -4.453125 -5.632812 -5.484375 -2.46875 C -6.515625 0.6875 -8.914062 3.421875 -12.6875 5.734375 L -14.21875 6.671875 C -16.625 8.140625 -19 9.007812 -21.34375 9.28125 C -23.695312 9.5625 -25.847656 9.21875 -27.796875 8.25 C -29.742188 7.28125 -31.351562 5.75 -32.625 3.65625 C -34.394531 0.769531 -35.046875 -2.023438 -34.578125 -4.734375 C -34.117188 -7.441406 -32.570312 -9.789062 -29.9375 -11.78125 L -26.78125 -6.625 C -28.320312 -5.507812 -29.21875 -4.34375 -29.46875 -3.125 C -29.71875 -1.914062 -29.359375 -0.519531 -28.390625 1.0625 C -27.335938 2.789062 -25.929688 3.703125 -24.171875 3.796875 C -22.421875 3.890625 -20.25 3.15625 -17.65625 1.59375 L -15.765625 0.4375 C -13.066406 -1.21875 -11.34375 -2.835938 -10.59375 -4.421875 C -9.84375 -6.003906 -10.007812 -7.679688 -11.09375 -9.453125 C -12.0625 -11.035156 -13.148438 -11.992188 -14.359375 -12.328125 C -15.566406 -12.660156 -16.96875 -12.421875 -18.5625 -11.609375 Z M -21.71875 -16.765625 "/></g></g><g style="fill:rgb(0%,45.489502%,41.958618%);fill-opacity:1;"><g transform="translate(58.773955, 255.315565)"><path style="stroke:none;" d="M -12.21875 -15.953125 L -8.609375 -6 L -2.234375 -6.171875 L -0.046875 -0.125 L -31.328125 -0.40625 L -33.25 -5.65625 L -9.421875 -25.984375 L -7.234375 -19.9375 Z M -13.765625 -5.875 L -16.265625 -12.765625 L -25.328125 -5.5625 Z M -13.765625 -5.875 "/></g></g><g style="fill:rgb(0%,45.489502%,41.958618%);fill-opacity:1;"><g transform="translate(49.024926, 227.894526)"><path style="stroke:none;" d="M -0.390625 -2.59375 L -29.40625 1.703125 L -30.71875 -7.21875 C -31.09375 -9.769531 -30.851562 -12.132812 -30 -14.3125 C -29.15625 -16.5 -27.757812 -18.3125 -25.8125 -19.75 C -23.863281 -21.195312 -21.535156 -22.117188 -18.828125 -22.515625 L -17.5 -22.71875 C -14.800781 -23.113281 -12.320312 -22.910156 -10.0625 -22.109375 C -7.800781 -21.316406 -5.941406 -19.992188 -4.484375 -18.140625 C -3.023438 -16.296875 -2.101562 -14.109375 -1.71875 -11.578125 Z M -25.4375 -4.984375 L -6.078125 -7.84375 L -6.515625 -10.734375 C -6.859375 -13.078125 -7.878906 -14.753906 -9.578125 -15.765625 C -11.285156 -16.773438 -13.5625 -17.082031 -16.40625 -16.6875 L -17.9375 -16.453125 C -20.882812 -16.015625 -23.03125 -15.070312 -24.375 -13.625 C -25.726562 -12.175781 -26.226562 -10.28125 -25.875 -7.9375 Z M -25.4375 -4.984375 "/></g></g><g style="fill:rgb(0%,45.489502%,41.958618%);fill-opacity:1;"><g transform="translate(44.979986, 200.009277)"><path style="stroke:none;" d="M -5 -19.46875 L -5.5625 -8.890625 L 0.359375 -6.546875 L 0 -0.140625 L -28.6875 -12.625 L -28.390625 -18.203125 L 1.484375 -27.59375 L 1.140625 -21.171875 Z M -10.375 -10.796875 L -9.96875 -18.109375 L -21.140625 -15.03125 Z M -10.375 -10.796875 "/></g></g><g style="fill:rgb(0%,45.489502%,41.958618%);fill-opacity:1;"><g transform="translate(46.808598, 170.905958)"><path style="stroke:none;" d="M -3.03125 -19.171875 C -4.132812 -19.453125 -5.082031 -19.273438 -5.875 -18.640625 C -6.675781 -18.015625 -7.660156 -16.769531 -8.828125 -14.90625 C -10.003906 -13.050781 -11.066406 -11.613281 -12.015625 -10.59375 C -14.578125 -7.8125 -17.335938 -6.796875 -20.296875 -7.546875 C -21.828125 -7.941406 -23.082031 -8.722656 -24.0625 -9.890625 C -25.050781 -11.066406 -25.675781 -12.550781 -25.9375 -14.34375 C -26.207031 -16.132812 -26.082031 -18.039062 -25.5625 -20.0625 C -25.039062 -22.09375 -24.207031 -23.804688 -23.0625 -25.203125 C -21.914062 -26.609375 -20.5625 -27.578125 -19 -28.109375 C -17.4375 -28.640625 -15.804688 -28.691406 -14.109375 -28.265625 L -15.609375 -22.40625 C -16.898438 -22.726562 -18.007812 -22.570312 -18.9375 -21.9375 C -19.875 -21.3125 -20.535156 -20.257812 -20.921875 -18.78125 C -21.285156 -17.34375 -21.265625 -16.148438 -20.859375 -15.203125 C -20.460938 -14.253906 -19.769531 -13.65625 -18.78125 -13.40625 C -17.851562 -13.164062 -16.957031 -13.429688 -16.09375 -14.203125 C -15.226562 -14.984375 -14.289062 -16.203125 -13.28125 -17.859375 C -11.4375 -20.941406 -9.578125 -23.050781 -7.703125 -24.1875 C -5.828125 -25.332031 -3.785156 -25.625 -1.578125 -25.0625 C 0.890625 -24.425781 2.582031 -23 3.5 -20.78125 C 4.414062 -18.570312 4.472656 -15.894531 3.671875 -12.75 C 3.117188 -10.5625 2.207031 -8.671875 0.9375 -7.078125 C -0.320312 -5.484375 -1.765625 -4.390625 -3.390625 -3.796875 C -5.023438 -3.210938 -6.757812 -3.15625 -8.59375 -3.625 L -7.09375 -9.5 C -3.957031 -8.695312 -1.910156 -10.171875 -0.953125 -13.921875 C -0.597656 -15.304688 -0.601562 -16.460938 -0.96875 -17.390625 C -1.332031 -18.316406 -2.019531 -18.910156 -3.03125 -19.171875 Z M -3.03125 -19.171875 "/></g></g><g style="fill:rgb(0%,45.489502%,41.958618%);fill-opacity:1;"><g transform="translate(53.592507, 144.90571)"><path style="stroke:none;" d="M -11.609375 -32.734375 L -15.421875 -24.59375 L 6.6875 -14.203125 L 4.109375 -8.75 L -18 -19.140625 L -21.765625 -11.125 L -26.203125 -13.21875 L -16.046875 -34.828125 Z M -11.609375 -32.734375 "/></g></g><g style="fill:rgb(0%,45.489502%,41.958618%);fill-opacity:1;"><g transform="translate(65.170206, 120.522129)"><path style="stroke:none;" d="M -0.703125 -17.21875 L -3.546875 -13.328125 L 5.109375 -6.984375 L 1.546875 -2.125 L -22.125 -19.4375 L -15.6875 -28.21875 C -13.644531 -31.019531 -11.441406 -32.71875 -9.078125 -33.3125 C -6.722656 -33.914062 -4.410156 -33.390625 -2.140625 -31.734375 C -0.523438 -30.546875 0.5625 -29.207031 1.125 -27.71875 C 1.695312 -26.226562 1.785156 -24.546875 1.390625 -22.671875 L 14.796875 -20.71875 L 15.03125 -20.546875 L 11.203125 -15.3125 Z M -7.5 -16.21875 L -4.625 -20.15625 C -3.71875 -21.382812 -3.332031 -22.5625 -3.46875 -23.6875 C -3.601562 -24.820312 -4.21875 -25.785156 -5.3125 -26.578125 C -6.425781 -27.398438 -7.535156 -27.726562 -8.640625 -27.5625 C -9.742188 -27.394531 -10.773438 -26.65625 -11.734375 -25.34375 L -14.609375 -21.421875 Z M -7.5 -16.21875 "/></g></g><g style="fill:rgb(0%,45.489502%,41.958618%);fill-opacity:1;"><g transform="translate(81.542824, 98.199244)"><path style="stroke:none;" d="M 10.359375 -28.3125 C 12.296875 -26.175781 13.617188 -23.957031 14.328125 -21.65625 C 15.035156 -19.363281 15.082031 -17.140625 14.46875 -14.984375 C 13.863281 -12.835938 12.648438 -10.941406 10.828125 -9.296875 C 9.023438 -7.648438 7.023438 -6.617188 4.828125 -6.203125 C 2.628906 -5.785156 0.414062 -6.023438 -1.8125 -6.921875 C -4.039062 -7.828125 -6.113281 -9.328125 -8.03125 -11.421875 L -8.984375 -12.484375 C -10.929688 -14.628906 -12.253906 -16.859375 -12.953125 -19.171875 C -13.660156 -21.492188 -13.707031 -23.726562 -13.09375 -25.875 C -12.476562 -28.03125 -11.265625 -29.929688 -9.453125 -31.578125 C -7.640625 -33.222656 -5.632812 -34.242188 -3.4375 -34.640625 C -1.25 -35.035156 0.960938 -34.773438 3.203125 -33.859375 C 5.453125 -32.941406 7.539062 -31.414062 9.46875 -29.28125 Z M 4.9375 -25.171875 C 2.863281 -27.453125 0.882812 -28.816406 -1 -29.265625 C -2.882812 -29.710938 -4.582031 -29.25 -6.09375 -27.875 C -7.601562 -26.507812 -8.234375 -24.875 -7.984375 -22.96875 C -7.742188 -21.0625 -6.601562 -18.972656 -4.5625 -16.703125 L -3.59375 -15.640625 C -1.582031 -13.421875 0.382812 -12.066406 2.3125 -11.578125 C 4.238281 -11.097656 5.96875 -11.554688 7.5 -12.953125 C 9 -14.304688 9.613281 -15.941406 9.34375 -17.859375 C 9.082031 -19.773438 7.929688 -21.859375 5.890625 -24.109375 Z M 4.9375 -25.171875 "/></g></g><g style="fill:rgb(0%,45.489502%,41.958618%);fill-opacity:1;"><g transform="translate(114.731876, 71.102841)"><path style="stroke:none;" d="M 2.375 -1.125 L -10.171875 -27.640625 L -2.03125 -31.5 C 0.3125 -32.601562 2.648438 -33.0625 4.984375 -32.875 C 7.316406 -32.6875 9.453125 -31.867188 11.390625 -30.421875 C 13.335938 -28.984375 14.898438 -27.03125 16.078125 -24.5625 L 16.640625 -23.34375 C 17.804688 -20.875 18.335938 -18.441406 18.234375 -16.046875 C 18.128906 -13.648438 17.40625 -11.484375 16.0625 -9.546875 C 14.71875 -7.617188 12.890625 -6.101562 10.578125 -5 Z M -2.625 -25.796875 L 5.75 -8.09375 L 8.390625 -9.34375 C 10.523438 -10.351562 11.828125 -11.820312 12.296875 -13.75 C 12.765625 -15.6875 12.394531 -17.953125 11.1875 -20.546875 L 10.53125 -21.953125 C 9.257812 -24.640625 7.734375 -26.414062 5.953125 -27.28125 C 4.179688 -28.15625 2.21875 -28.085938 0.0625 -27.078125 Z M -2.625 -25.796875 "/></g></g><g style="fill:rgb(0%,45.489502%,41.958618%);fill-opacity:1;"><g transform="translate(140.480756, 59.263931)"><path style="stroke:none;" d="M 16.40625 -17.421875 L 5.171875 -14.484375 L 7.140625 -6.890625 L 20.328125 -10.328125 L 21.5625 -5.625 L 2.546875 -0.65625 L -4.859375 -29.03125 L 14.109375 -34 L 15.34375 -29.265625 L 2.203125 -25.828125 L 3.96875 -19.0625 L 15.203125 -22 Z M 16.40625 -17.421875 "/></g></g><g style="fill:rgb(0%,45.489502%,41.958618%);fill-opacity:1;"><g transform="translate(177.482891, 51.441955)"><path style="stroke:none;" d="M 25.875 -9.15625 C 25.570312 -6.007812 24.347656 -3.550781 22.203125 -1.78125 C 20.054688 -0.0195312 17.265625 0.816406 13.828125 0.734375 C 10.066406 0.640625 7.140625 -0.691406 5.046875 -3.265625 C 2.953125 -5.847656 1.957031 -9.347656 2.0625 -13.765625 L 2.109375 -15.5625 C 2.171875 -18.382812 2.722656 -20.859375 3.765625 -22.984375 C 4.816406 -25.109375 6.273438 -26.71875 8.140625 -27.8125 C 10.015625 -28.914062 12.175781 -29.441406 14.625 -29.390625 C 18.007812 -29.304688 20.710938 -28.335938 22.734375 -26.484375 C 24.765625 -24.628906 25.898438 -22.054688 26.140625 -18.765625 L 20.09375 -18.90625 C 20 -20.8125 19.507812 -22.203125 18.625 -23.078125 C 17.738281 -23.953125 16.367188 -24.410156 14.515625 -24.453125 C 12.492188 -24.492188 10.960938 -23.800781 9.921875 -22.375 C 8.890625 -20.957031 8.328125 -18.734375 8.234375 -15.703125 L 8.1875 -13.484375 C 8.113281 -10.316406 8.535156 -7.988281 9.453125 -6.5 C 10.378906 -5.019531 11.878906 -4.253906 13.953125 -4.203125 C 15.816406 -4.160156 17.21875 -4.554688 18.15625 -5.390625 C 19.09375 -6.222656 19.648438 -7.523438 19.828125 -9.296875 Z M 25.875 -9.15625 "/></g></g><g style="fill:rgb(0%,45.489502%,41.958618%);fill-opacity:1;"><g transform="translate(205.79233, 52.172025)"><path style="stroke:none;" d="M 29.171875 -7.609375 C 28.523438 -4.796875 27.457031 -2.445312 25.96875 -0.5625 C 24.476562 1.320312 22.675781 2.625 20.5625 3.34375 C 18.445312 4.070312 16.191406 4.160156 13.796875 3.609375 C 11.421875 3.054688 9.4375 1.992188 7.84375 0.421875 C 6.257812 -1.140625 5.203125 -3.09375 4.671875 -5.4375 C 4.140625 -7.789062 4.1875 -10.34375 4.8125 -13.09375 L 5.140625 -14.5 C 5.785156 -17.320312 6.863281 -19.679688 8.375 -21.578125 C 9.882812 -23.484375 11.695312 -24.796875 13.8125 -25.515625 C 15.925781 -26.234375 18.171875 -26.316406 20.546875 -25.765625 C 22.929688 -25.210938 24.914062 -24.148438 26.5 -22.578125 C 28.082031 -21.003906 29.132812 -19.03125 29.65625 -16.65625 C 30.175781 -14.28125 30.113281 -11.691406 29.46875 -8.890625 Z M 23.5 -10.296875 C 24.195312 -13.285156 24.1875 -15.679688 23.46875 -17.484375 C 22.757812 -19.285156 21.414062 -20.421875 19.4375 -20.890625 C 17.457031 -21.347656 15.753906 -20.929688 14.328125 -19.640625 C 12.898438 -18.347656 11.835938 -16.222656 11.140625 -13.265625 L 10.8125 -11.875 C 10.132812 -8.945312 10.144531 -6.550781 10.84375 -4.6875 C 11.550781 -2.832031 12.910156 -1.671875 14.921875 -1.203125 C 16.890625 -0.742188 18.582031 -1.171875 20 -2.484375 C 21.425781 -3.796875 22.488281 -5.929688 23.1875 -8.890625 Z M 23.5 -10.296875 "/></g></g><g style="fill:rgb(0%,45.489502%,41.958618%);fill-opacity:1;"><g transform="translate(234.785631, 59.137888)"><path style="stroke:none;" d="M 16.71875 -4.15625 L 12.34375 -6.15625 L 7.875 3.609375 L 2.390625 1.09375 L 14.59375 -25.578125 L 24.484375 -21.046875 C 27.640625 -19.597656 29.75 -17.78125 30.8125 -15.59375 C 31.882812 -13.40625 31.832031 -11.03125 30.65625 -8.46875 C 29.820312 -6.65625 28.734375 -5.320312 27.390625 -4.46875 C 26.046875 -3.613281 24.410156 -3.191406 22.484375 -3.203125 L 23.25 10.34375 L 23.140625 10.59375 L 17.25 7.890625 Z M 14.375 -10.59375 L 18.796875 -8.578125 C 20.179688 -7.941406 21.414062 -7.800781 22.5 -8.15625 C 23.582031 -8.519531 24.40625 -9.316406 24.96875 -10.546875 C 25.550781 -11.804688 25.644531 -12.957031 25.25 -14 C 24.863281 -15.050781 23.929688 -15.914062 22.453125 -16.59375 L 18.046875 -18.609375 Z M 14.375 -10.59375 "/></g></g><g style="fill:rgb(0%,45.489502%,41.958618%);fill-opacity:1;"><g transform="translate(259.966223, 70.803101)"><path style="stroke:none;" d="M 13.0625 -3.3125 L 7.015625 5.0625 L 2.125 1.53125 L 19.28125 -22.25 L 28.5625 -15.546875 C 30.34375 -14.265625 31.675781 -12.804688 32.5625 -11.171875 C 33.445312 -9.535156 33.816406 -7.851562 33.671875 -6.125 C 33.535156 -4.394531 32.914062 -2.765625 31.8125 -1.234375 C 30.125 1.085938 28 2.347656 25.4375 2.546875 C 22.875 2.742188 20.179688 1.828125 17.359375 -0.203125 Z M 15.9375 -7.296875 L 20.328125 -4.125 C 21.617188 -3.195312 22.820312 -2.789062 23.9375 -2.90625 C 25.050781 -3.019531 26.015625 -3.644531 26.828125 -4.78125 C 27.671875 -5.945312 28.007812 -7.132812 27.84375 -8.34375 C 27.675781 -9.550781 27 -10.601562 25.8125 -11.5 L 21.3125 -14.75 Z M 15.9375 -7.296875 "/></g></g><g style="fill:rgb(0%,45.489502%,41.958618%);fill-opacity:1;"><g transform="translate(282.610014, 87.193904)"><path style="stroke:none;" d="M 28.375 10.203125 C 26.25 12.148438 24.039062 13.484375 21.75 14.203125 C 19.457031 14.921875 17.234375 14.984375 15.078125 14.390625 C 12.921875 13.796875 11.015625 12.59375 9.359375 10.78125 C 7.703125 8.988281 6.660156 6.988281 6.234375 4.78125 C 5.816406 2.582031 6.050781 0.367188 6.9375 -1.859375 C 7.820312 -4.097656 9.296875 -6.171875 11.359375 -8.078125 L 12.421875 -9.0625 C 14.554688 -11.019531 16.78125 -12.359375 19.09375 -13.078125 C 21.414062 -13.796875 23.648438 -13.851562 25.796875 -13.25 C 27.953125 -12.644531 29.859375 -11.441406 31.515625 -9.640625 C 33.171875 -7.835938 34.207031 -5.84375 34.625 -3.65625 C 35.039062 -1.46875 34.789062 0.75 33.875 3 C 32.96875 5.257812 31.457031 7.363281 29.34375 9.3125 Z M 25.203125 4.78125 C 27.472656 2.707031 28.820312 0.722656 29.25 -1.171875 C 29.6875 -3.066406 29.21875 -4.765625 27.84375 -6.265625 C 26.46875 -7.753906 24.828125 -8.367188 22.921875 -8.109375 C 21.015625 -7.859375 18.929688 -6.707031 16.671875 -4.65625 L 15.625 -3.6875 C 13.414062 -1.65625 12.070312 0.320312 11.59375 2.25 C 11.125 4.175781 11.59375 5.898438 13 7.421875 C 14.363281 8.910156 16 9.515625 17.90625 9.234375 C 19.820312 8.960938 21.90625 7.804688 24.15625 5.765625 Z M 25.203125 4.78125 "/></g></g><g style="fill:rgb(0%,45.489502%,41.958618%);fill-opacity:1;"><g transform="translate(309.903458, 120.212491)"><path style="stroke:none;" d="M 19.890625 18.90625 C 16.941406 20.0625 14.195312 20.082031 11.65625 18.96875 C 9.125 17.863281 7.113281 15.757812 5.625 12.65625 C 4 9.257812 3.859375 6.039062 5.203125 3 C 6.554688 -0.03125 9.222656 -2.5 13.203125 -4.40625 L 14.828125 -5.1875 C 17.367188 -6.40625 19.820312 -7.03125 22.1875 -7.0625 C 24.5625 -7.09375 26.664062 -6.523438 28.5 -5.359375 C 30.332031 -4.191406 31.773438 -2.507812 32.828125 -0.3125 C 34.296875 2.75 34.65625 5.601562 33.90625 8.25 C 33.164062 10.894531 31.390625 13.070312 28.578125 14.78125 L 25.953125 9.328125 C 27.597656 8.378906 28.609375 7.3125 28.984375 6.125 C 29.367188 4.9375 29.160156 3.503906 28.359375 1.828125 C 27.484375 0.015625 26.175781 -1.023438 24.4375 -1.296875 C 22.695312 -1.578125 20.457031 -1.070312 17.71875 0.21875 L 15.71875 1.1875 C 12.863281 2.550781 10.984375 3.976562 10.078125 5.46875 C 9.179688 6.96875 9.179688 8.65625 10.078125 10.53125 C 10.878906 12.207031 11.859375 13.273438 13.015625 13.734375 C 14.179688 14.191406 15.601562 14.097656 17.28125 13.453125 Z M 19.890625 18.90625 "/></g></g><g style="fill:rgb(0%,45.489502%,41.958618%);fill-opacity:1;"><g transform="translate(321.918105, 146.108516)"><path style="stroke:none;" d="M 6.9375 7.09375 L 10.265625 19.484375 L 5.578125 20.75 L 0.6875 2.53125 L 29.015625 -5.09375 L 30.578125 0.734375 Z M 6.9375 7.09375 "/></g></g><g style="fill:rgb(0%,45.489502%,41.958618%);fill-opacity:1;"><g transform="translate(327.808195, 169.917499)"><path style="stroke:none;" d="M 1.140625 8.96875 L 0.375 2.96875 L 29.46875 -0.734375 L 30.234375 5.265625 Z M 37.515625 2.28125 L 38.328125 8.578125 L 31.421875 3.828125 L 30.8125 -0.875 Z M 37.515625 2.28125 "/></g></g><g style="fill:rgb(0%,45.489502%,41.958618%);fill-opacity:1;"><g transform="translate(330.090803, 183.739155)"><path style="stroke:none;" d="M -0.84375 26.453125 L -0.640625 20.40625 L 19 9.265625 L -0.28125 8.65625 L -0.078125 2.625 L 29.234375 3.546875 L 29.03125 9.578125 L 9.34375 20.734375 L 28.671875 21.34375 L 28.46875 27.375 Z M -0.84375 26.453125 "/></g></g><g style="fill:rgb(0%,45.489502%,41.958618%);fill-opacity:1;"><g transform="translate(328.288872, 214.685693)"><path style="stroke:none;" d="M -1.703125 8.890625 L -0.5625 2.953125 L 28.234375 8.484375 L 27.09375 14.421875 Z M -1.703125 8.890625 "/></g></g><g style="fill:rgb(0%,45.489502%,41.958618%);fill-opacity:1;"><g transform="translate(326.039098, 228.590512)"><path style="stroke:none;" d="M 0.625 27.4375 C -2.269531 26.164062 -4.222656 24.234375 -5.234375 21.640625 C -6.242188 19.054688 -6.171875 16.144531 -5.015625 12.90625 C -3.765625 9.363281 -1.582031 7 1.53125 5.8125 C 4.644531 4.632812 8.28125 4.785156 12.4375 6.265625 L 14.140625 6.859375 C 16.796875 7.804688 18.96875 9.101562 20.65625 10.75 C 22.34375 12.40625 23.421875 14.289062 23.890625 16.40625 C 24.359375 18.53125 24.179688 20.75 23.359375 23.0625 C 22.222656 26.25 20.457031 28.515625 18.0625 29.859375 C 15.675781 31.203125 12.878906 31.476562 9.671875 30.6875 L 11.703125 25 C 13.523438 25.476562 14.992188 25.429688 16.109375 24.859375 C 17.222656 24.296875 18.085938 23.144531 18.703125 21.40625 C 19.378906 19.5 19.203125 17.832031 18.171875 16.40625 C 17.140625 14.976562 15.195312 13.75 12.34375 12.71875 L 10.265625 11.984375 C 7.273438 10.921875 4.925781 10.59375 3.21875 11 C 1.519531 11.414062 0.328125 12.601562 -0.359375 14.5625 C -0.984375 16.320312 -1.046875 17.773438 -0.546875 18.921875 C -0.046875 20.078125 1.019531 21.015625 2.65625 21.734375 Z M 0.625 27.4375 "/></g></g><g style="fill:rgb(0%,45.489502%,41.958618%);fill-opacity:1;"><g transform="translate(316.510585, 255.263197)"><path style="stroke:none;" d="M -1.875 30.09375 C -4.34375 28.601562 -6.238281 26.851562 -7.5625 24.84375 C -8.894531 22.84375 -9.570312 20.726562 -9.59375 18.5 C -9.625 16.269531 -9.003906 14.101562 -7.734375 12 C -6.472656 9.914062 -4.847656 8.359375 -2.859375 7.328125 C -0.867188 6.304688 1.320312 5.910156 3.71875 6.140625 C 6.113281 6.367188 8.519531 7.207031 10.9375 8.65625 L 12.15625 9.40625 C 14.632812 10.90625 16.539062 12.664062 17.875 14.6875 C 19.21875 16.71875 19.898438 18.847656 19.921875 21.078125 C 19.941406 23.304688 19.316406 25.46875 18.046875 27.5625 C 16.785156 29.65625 15.160156 31.207031 13.171875 32.21875 C 11.179688 33.238281 8.976562 33.625 6.5625 33.375 C 4.144531 33.132812 1.707031 32.269531 -0.75 30.78125 Z M 2.4375 25.53125 C 5.0625 27.125 7.34375 27.863281 9.28125 27.75 C 11.226562 27.644531 12.726562 26.71875 13.78125 24.96875 C 14.832031 23.226562 14.96875 21.476562 14.1875 19.71875 C 13.414062 17.96875 11.722656 16.300781 9.109375 14.71875 L 7.890625 13.96875 C 5.328125 12.414062 3.054688 11.679688 1.078125 11.765625 C -0.898438 11.859375 -2.425781 12.789062 -3.5 14.5625 C -4.550781 16.289062 -4.675781 18.03125 -3.875 19.78125 C -3.070312 21.53125 -1.378906 23.203125 1.203125 24.796875 Z M 2.4375 25.53125 "/></g></g><g clip-rule="nonzero" clip-path="url(#clip1)"><path style=" stroke:none;fill-rule:nonzero;fill:rgb(0%,45.489502%,41.958618%);fill-opacity:1;" d="M 79.914062 305.53125 C 80.578125 306.398438 80.445312 307.660156 79.582031 308.328125 C 79.183594 308.59375 78.78125 308.792969 78.316406 308.792969 C 77.71875 308.792969 77.121094 308.527344 76.71875 308.0625 C 76.054688 307.195312 76.1875 305.933594 77.054688 305.265625 C 77.917969 304.535156 79.183594 304.667969 79.914062 305.53125 Z M 106.722656 109.617188 C 107.121094 109.617188 107.523438 109.484375 107.855469 109.21875 C 108.785156 108.550781 108.984375 107.355469 108.320312 106.421875 C 107.65625 105.492188 106.457031 105.292969 105.527344 105.957031 C 104.59375 106.621094 104.394531 107.820312 105.058594 108.75 C 105.460938 109.351562 106.125 109.617188 106.722656 109.617188 Z M 117.832031 102.433594 C 118.164062 102.433594 118.5 102.363281 118.832031 102.164062 C 119.761719 101.632812 120.09375 100.371094 119.5625 99.4375 C 119.03125 98.507812 117.765625 98.175781 116.835938 98.707031 C 115.902344 99.238281 115.570312 100.503906 116.101562 101.433594 C 116.503906 102.097656 117.167969 102.433594 117.832031 102.433594 Z M 108.121094 332.410156 C 107.1875 331.742188 105.992188 332.011719 105.328125 332.875 C 104.660156 333.804688 104.925781 335.003906 105.792969 335.667969 C 106.125 335.933594 106.523438 336.066406 106.921875 336.066406 C 107.523438 336.066406 108.1875 335.800781 108.519531 335.203125 C 109.25 334.339844 109.050781 333.074219 108.121094 332.410156 Z M 88.429688 315.378906 C 87.695312 314.582031 86.433594 314.582031 85.636719 315.3125 C 84.835938 316.042969 84.835938 317.308594 85.570312 318.105469 C 85.96875 318.503906 86.5 318.703125 87.03125 318.703125 C 87.496094 318.703125 88.03125 318.503906 88.429688 318.171875 C 89.160156 317.441406 89.226562 316.175781 88.429688 315.378906 Z M 95.082031 324.558594 C 94.351562 325.425781 94.417969 326.621094 95.28125 327.351562 C 95.679688 327.6875 96.144531 327.820312 96.613281 327.820312 C 97.144531 327.820312 97.742188 327.621094 98.140625 327.152344 C 98.875 326.355469 98.808594 325.023438 97.941406 324.359375 C 97.078125 323.628906 95.8125 323.761719 95.082031 324.558594 Z M 96.34375 117.800781 C 96.8125 117.800781 97.277344 117.664062 97.675781 117.332031 C 98.472656 116.601562 98.605469 115.335938 97.875 114.539062 C 97.144531 113.742188 95.878906 113.609375 95.082031 114.339844 C 94.28125 115.070312 94.148438 116.335938 94.882812 117.132812 C 95.214844 117.597656 95.746094 117.800781 96.34375 117.800781 Z M 86.765625 126.980469 C 87.296875 126.980469 87.832031 126.78125 88.230469 126.378906 C 88.960938 125.582031 88.960938 124.320312 88.164062 123.585938 C 87.363281 122.855469 86.101562 122.855469 85.367188 123.652344 C 84.636719 124.453125 84.636719 125.714844 85.433594 126.445312 C 85.769531 126.78125 86.300781 126.980469 86.765625 126.980469 Z M 154.554688 87.664062 C 154.6875 87.664062 154.886719 87.664062 155.019531 87.597656 C 156.085938 87.332031 156.75 86.265625 156.484375 85.203125 C 156.21875 84.136719 155.152344 83.472656 154.089844 83.738281 C 153.023438 84.003906 152.359375 85.070312 152.625 86.132812 C 152.824219 87.0625 153.625 87.664062 154.554688 87.664062 Z M 155.285156 353.964844 C 154.222656 353.695312 153.15625 354.363281 152.890625 355.425781 C 152.625 356.492188 153.289062 357.554688 154.355469 357.820312 C 154.488281 357.820312 154.6875 357.886719 154.820312 357.886719 C 155.753906 357.886719 156.550781 357.289062 156.75 356.359375 C 157.015625 355.292969 156.351562 354.230469 155.285156 353.964844 Z M 167.527344 85.136719 C 167.59375 85.136719 167.726562 85.136719 167.792969 85.136719 C 168.859375 85.003906 169.65625 83.9375 169.457031 82.875 C 169.324219 81.808594 168.257812 81.011719 167.195312 81.210938 C 166.128906 81.34375 165.332031 82.40625 165.53125 83.472656 C 165.664062 84.46875 166.53125 85.136719 167.527344 85.136719 Z M 142.78125 350.304688 C 141.714844 349.972656 140.585938 350.503906 140.253906 351.566406 C 139.917969 352.632812 140.453125 353.761719 141.515625 354.097656 C 141.714844 354.164062 141.980469 354.230469 142.179688 354.230469 C 142.980469 354.230469 143.777344 353.695312 144.042969 352.898438 C 144.375 351.769531 143.84375 350.636719 142.78125 350.304688 Z M 119.097656 339.460938 C 118.164062 338.929688 116.902344 339.261719 116.371094 340.191406 C 115.835938 341.125 116.171875 342.386719 117.101562 342.921875 C 117.433594 343.121094 117.765625 343.1875 118.097656 343.1875 C 118.765625 343.1875 119.429688 342.851562 119.828125 342.1875 C 120.359375 341.257812 120.027344 339.992188 119.097656 339.460938 Z M 141.847656 91.386719 C 142.046875 91.386719 142.246094 91.320312 142.515625 91.253906 C 143.578125 90.855469 144.109375 89.726562 143.777344 88.726562 C 143.378906 87.664062 142.246094 87.132812 141.25 87.53125 C 140.183594 87.863281 139.652344 89.058594 140.050781 90.058594 C 140.253906 90.921875 140.984375 91.386719 141.847656 91.386719 Z M 129.609375 96.378906 C 129.875 96.378906 130.140625 96.3125 130.40625 96.179688 C 131.402344 95.710938 131.871094 94.515625 131.402344 93.515625 C 130.9375 92.519531 129.742188 92.054688 128.742188 92.519531 C 127.746094 92.984375 127.28125 94.183594 127.746094 95.179688 C 128.078125 95.914062 128.808594 96.378906 129.609375 96.378906 Z M 130.671875 345.449219 C 129.675781 344.980469 128.476562 345.449219 128.011719 346.445312 C 127.546875 347.445312 128.011719 348.640625 129.007812 349.105469 C 129.277344 349.238281 129.542969 349.304688 129.808594 349.304688 C 130.539062 349.304688 131.269531 348.839844 131.605469 348.109375 C 132.136719 347.109375 131.671875 345.914062 130.671875 345.449219 Z M 168.125 356.359375 C 167.0625 356.226562 165.996094 356.957031 165.863281 358.019531 C 165.730469 359.085938 166.464844 360.148438 167.527344 360.28125 C 167.59375 360.28125 167.726562 360.28125 167.792969 360.28125 C 168.792969 360.28125 169.65625 359.550781 169.789062 358.554688 C 169.921875 357.554688 169.191406 356.558594 168.125 356.359375 Z M 50.578125 196.566406 C 50.710938 196.566406 50.84375 196.632812 50.976562 196.632812 C 51.90625 196.632812 52.773438 195.964844 52.90625 195.035156 C 53.105469 193.96875 52.371094 192.90625 51.308594 192.707031 C 50.242188 192.507812 49.179688 193.238281 48.980469 194.304688 C 48.78125 195.300781 49.511719 196.363281 50.578125 196.566406 Z M 48.914062 209.671875 C 48.980469 209.671875 49.046875 209.671875 49.113281 209.671875 C 50.109375 209.671875 50.976562 208.871094 51.109375 207.875 C 51.242188 206.808594 50.375 205.8125 49.3125 205.679688 C 48.246094 205.546875 47.25 206.410156 47.117188 207.476562 C 47.050781 208.605469 47.847656 209.605469 48.914062 209.671875 Z M 50.507812 220.914062 C 50.507812 219.78125 49.578125 218.917969 48.515625 218.917969 C 47.382812 218.917969 46.519531 219.847656 46.519531 220.914062 C 46.519531 222.042969 47.382812 222.910156 48.515625 222.910156 C 49.644531 222.910156 50.507812 221.976562 50.507812 220.914062 Z M 49.3125 236.082031 C 50.375 235.949219 51.242188 235.015625 51.109375 233.886719 C 50.976562 232.753906 50.042969 231.957031 48.914062 232.089844 C 47.78125 232.222656 46.984375 233.152344 47.117188 234.285156 C 47.183594 235.28125 48.113281 236.082031 49.113281 236.082031 C 49.179688 236.082031 49.246094 236.082031 49.3125 236.082031 Z M 322 194.503906 C 322.199219 195.433594 322.996094 196.097656 323.929688 196.097656 C 324.0625 196.097656 324.195312 196.097656 324.328125 196.03125 C 325.390625 195.832031 326.125 194.769531 325.921875 193.703125 C 325.722656 192.640625 324.660156 191.90625 323.59375 192.109375 C 322.53125 192.375 321.800781 193.4375 322 194.503906 Z M 323.929688 207.410156 C 323.996094 208.40625 324.925781 209.203125 325.921875 209.203125 C 325.988281 209.203125 326.058594 209.203125 326.125 209.203125 C 327.253906 209.070312 328.050781 208.140625 327.917969 207.007812 C 327.785156 205.878906 326.855469 205.078125 325.722656 205.214844 C 324.59375 205.347656 323.792969 206.34375 323.929688 207.410156 Z M 53.503906 183.660156 C 53.703125 183.726562 53.902344 183.726562 54.101562 183.726562 C 54.96875 183.726562 55.765625 183.191406 56.03125 182.261719 C 56.363281 181.199219 55.765625 180.066406 54.699219 179.800781 C 53.636719 179.46875 52.503906 180.066406 52.238281 181.132812 C 51.839844 182.261719 52.4375 183.328125 53.503906 183.660156 Z M 52.972656 246.792969 C 52.773438 245.726562 51.707031 244.996094 50.644531 245.195312 C 49.578125 245.394531 48.847656 246.457031 49.046875 247.523438 C 49.246094 248.453125 50.042969 249.121094 50.976562 249.121094 C 51.109375 249.121094 51.242188 249.121094 51.375 249.054688 C 52.503906 248.921875 53.171875 247.921875 52.972656 246.792969 Z M 62.949219 158.976562 C 63.214844 159.109375 63.546875 159.175781 63.882812 159.175781 C 64.613281 159.175781 65.277344 158.777344 65.675781 158.113281 C 66.210938 157.117188 65.808594 155.917969 64.8125 155.453125 C 63.816406 154.921875 62.617188 155.320312 62.152344 156.316406 C 61.554688 157.25 61.953125 158.445312 62.949219 158.976562 Z M 63.082031 282.78125 C 62.085938 283.3125 61.753906 284.511719 62.21875 285.441406 C 62.550781 286.109375 63.28125 286.507812 64.015625 286.507812 C 64.347656 286.507812 64.613281 286.441406 64.945312 286.308594 C 65.945312 285.773438 66.34375 284.578125 65.808594 283.644531 C 65.277344 282.648438 64.082031 282.316406 63.082031 282.78125 Z M 69.402344 147.402344 C 69.734375 147.601562 70.132812 147.734375 70.46875 147.734375 C 71.132812 147.734375 71.796875 147.402344 72.128906 146.804688 C 72.730469 145.871094 72.464844 144.675781 71.53125 144.078125 C 70.601562 143.476562 69.402344 143.742188 68.804688 144.675781 C 68.207031 145.605469 68.472656 146.804688 69.402344 147.402344 Z M 69.535156 294.355469 C 68.605469 294.957031 68.339844 296.21875 68.9375 297.152344 C 69.335938 297.75 69.933594 298.082031 70.601562 298.082031 C 71 298.082031 71.332031 298.015625 71.664062 297.75 C 72.597656 297.152344 72.863281 295.886719 72.261719 294.957031 C 71.730469 294.023438 70.46875 293.757812 69.535156 294.355469 Z M 76.921875 136.558594 C 77.253906 136.824219 77.71875 136.957031 78.117188 136.957031 C 78.714844 136.957031 79.316406 136.691406 79.714844 136.226562 C 80.378906 135.363281 80.246094 134.097656 79.382812 133.433594 C 78.515625 132.765625 77.253906 132.898438 76.585938 133.765625 C 75.855469 134.5625 76.054688 135.828125 76.921875 136.558594 Z M 57.628906 171.085938 C 57.894531 171.21875 58.09375 171.21875 58.359375 171.21875 C 59.15625 171.21875 59.890625 170.753906 60.222656 169.953125 C 60.621094 168.957031 60.15625 167.757812 59.089844 167.359375 C 58.09375 166.960938 56.894531 167.425781 56.496094 168.492188 C 56.097656 169.488281 56.628906 170.6875 57.628906 171.085938 Z M 57.761719 270.671875 C 56.761719 271.074219 56.230469 272.269531 56.628906 273.269531 C 56.960938 274.066406 57.695312 274.53125 58.492188 274.53125 C 58.757812 274.53125 59.023438 274.464844 59.222656 274.398438 C 60.222656 274 60.753906 272.800781 60.355469 271.804688 C 59.957031 270.738281 58.757812 270.273438 57.761719 270.671875 Z M 53.570312 258.101562 C 52.503906 258.433594 51.90625 259.496094 52.238281 260.5625 C 52.503906 261.425781 53.304688 261.957031 54.167969 261.957031 C 54.367188 261.957031 54.566406 261.957031 54.699219 261.890625 C 55.765625 261.558594 56.363281 260.496094 56.03125 259.429688 C 55.765625 258.433594 54.632812 257.835938 53.570312 258.101562 Z M 305.566406 294.222656 C 304.636719 293.625 303.4375 293.890625 302.773438 294.824219 C 302.175781 295.753906 302.441406 296.949219 303.371094 297.550781 C 303.703125 297.75 304.101562 297.882812 304.4375 297.882812 C 305.101562 297.882812 305.699219 297.550781 306.097656 296.949219 C 306.765625 296.019531 306.5 294.824219 305.566406 294.222656 Z M 296.652344 136.558594 C 297.117188 136.558594 297.515625 136.425781 297.917969 136.09375 C 298.78125 135.429688 298.914062 134.164062 298.25 133.300781 C 297.582031 132.433594 296.320312 132.300781 295.457031 132.964844 C 294.589844 133.632812 294.457031 134.894531 295.121094 135.761719 C 295.457031 136.359375 296.054688 136.558594 296.652344 136.558594 Z M 304.304688 147.335938 C 304.703125 147.335938 305.035156 147.203125 305.367188 147.003906 C 306.296875 146.40625 306.566406 145.140625 305.964844 144.277344 C 305.367188 143.34375 304.101562 143.078125 303.238281 143.675781 C 302.308594 144.277344 302.042969 145.539062 302.640625 146.472656 C 303.039062 147.003906 303.636719 147.335938 304.304688 147.335938 Z M 298.050781 305.066406 C 297.183594 304.402344 295.921875 304.535156 295.253906 305.398438 C 294.589844 306.265625 294.722656 307.527344 295.589844 308.195312 C 295.988281 308.460938 296.386719 308.59375 296.851562 308.59375 C 297.449219 308.59375 298.050781 308.328125 298.449219 307.859375 C 299.046875 306.996094 298.914062 305.730469 298.050781 305.066406 Z M 310.957031 158.777344 C 311.289062 158.777344 311.554688 158.710938 311.886719 158.578125 C 312.882812 158.046875 313.21875 156.847656 312.75 155.917969 C 312.21875 154.921875 311.023438 154.585938 310.089844 155.054688 C 309.09375 155.585938 308.761719 156.78125 309.226562 157.714844 C 309.558594 158.378906 310.222656 158.777344 310.957031 158.777344 Z M 312.019531 282.648438 C 311.023438 282.117188 309.824219 282.515625 309.359375 283.511719 C 308.828125 284.511719 309.226562 285.707031 310.222656 286.175781 C 310.488281 286.308594 310.824219 286.375 311.15625 286.375 C 311.886719 286.375 312.550781 285.972656 312.953125 285.308594 C 313.417969 284.378906 313.019531 283.179688 312.019531 282.648438 Z M 286.675781 315.246094 C 285.941406 316.042969 285.941406 317.308594 286.742188 318.039062 C 287.140625 318.4375 287.605469 318.570312 288.136719 318.570312 C 288.667969 318.570312 289.203125 318.371094 289.601562 317.972656 C 290.398438 317.175781 290.332031 315.910156 289.535156 315.179688 C 288.734375 314.445312 287.472656 314.445312 286.675781 315.246094 Z M 277.292969 324.292969 C 276.496094 325.023438 276.363281 326.289062 277.09375 327.085938 C 277.492188 327.550781 278.027344 327.753906 278.625 327.753906 C 279.089844 327.753906 279.554688 327.621094 279.953125 327.285156 C 280.753906 326.554688 280.886719 325.289062 280.15625 324.492188 C 279.355469 323.628906 278.09375 323.5625 277.292969 324.292969 Z M 287.9375 126.582031 C 288.402344 126.582031 288.9375 126.378906 289.335938 126.046875 C 290.132812 125.316406 290.132812 123.984375 289.402344 123.253906 C 288.667969 122.457031 287.40625 122.457031 286.605469 123.1875 C 285.808594 123.917969 285.808594 125.183594 286.539062 125.980469 C 286.875 126.378906 287.40625 126.582031 287.9375 126.582031 Z M 320.867188 183.257812 C 321.066406 183.257812 321.265625 183.257812 321.398438 183.191406 C 322.464844 182.859375 323.0625 181.796875 322.730469 180.730469 C 322.398438 179.667969 321.332031 179.070312 320.269531 179.402344 C 319.203125 179.734375 318.605469 180.796875 318.9375 181.863281 C 319.203125 182.726562 320.003906 183.257812 320.867188 183.257812 Z M 326.125 231.957031 C 325.058594 231.824219 324.0625 232.6875 323.929688 233.753906 C 323.792969 234.882812 324.660156 235.816406 325.722656 235.949219 C 325.789062 235.949219 325.855469 235.949219 325.921875 235.949219 C 326.921875 235.949219 327.785156 235.148438 327.917969 234.152344 C 327.984375 233.019531 327.1875 232.089844 326.125 231.957031 Z M 324.394531 245.0625 C 323.328125 244.863281 322.265625 245.59375 322.066406 246.65625 C 321.867188 247.722656 322.597656 248.785156 323.660156 248.988281 C 323.792969 248.988281 323.929688 248.988281 324.0625 248.988281 C 324.992188 248.988281 325.855469 248.320312 325.988281 247.390625 C 326.191406 246.324219 325.523438 245.261719 324.394531 245.0625 Z M 328.519531 220.445312 C 328.519531 219.316406 327.585938 218.453125 326.523438 218.453125 C 325.390625 218.453125 324.527344 219.316406 324.527344 220.445312 C 324.527344 220.515625 324.527344 220.582031 324.527344 220.582031 C 324.527344 220.648438 324.527344 220.648438 324.527344 220.714844 C 324.527344 221.777344 325.390625 222.710938 326.523438 222.710938 C 327.585938 222.710938 328.519531 221.84375 328.519531 220.714844 C 328.519531 220.648438 328.519531 220.582031 328.519531 220.582031 C 328.519531 220.582031 328.519531 220.445312 328.519531 220.445312 Z M 317.34375 270.539062 C 316.34375 270.140625 315.148438 270.605469 314.746094 271.671875 C 314.347656 272.667969 314.8125 273.867188 315.878906 274.265625 C 316.144531 274.332031 316.410156 274.398438 316.609375 274.398438 C 317.410156 274.398438 318.140625 273.933594 318.472656 273.136719 C 318.871094 272.136719 318.40625 270.941406 317.34375 270.539062 Z M 316.476562 170.820312 C 316.742188 170.820312 317.007812 170.753906 317.207031 170.6875 C 318.207031 170.289062 318.738281 169.089844 318.339844 168.09375 C 317.941406 167.09375 316.742188 166.5625 315.746094 166.960938 C 314.746094 167.359375 314.214844 168.558594 314.613281 169.554688 C 314.945312 170.289062 315.679688 170.820312 316.476562 170.820312 Z M 278.359375 117.53125 C 278.890625 117.53125 279.488281 117.265625 279.886719 116.867188 C 280.621094 116.003906 280.554688 114.738281 279.6875 114.074219 C 278.890625 113.339844 277.558594 113.410156 276.894531 114.273438 C 276.164062 115.070312 276.296875 116.335938 277.09375 117.066406 C 277.425781 117.332031 277.890625 117.53125 278.359375 117.53125 Z M 180.632812 83.871094 L 180.699219 83.871094 C 181.832031 83.804688 182.628906 82.875 182.628906 81.742188 C 182.5625 80.679688 181.628906 79.8125 180.566406 79.878906 C 179.433594 79.945312 178.636719 80.878906 178.703125 81.941406 C 178.703125 83.074219 179.636719 83.871094 180.632812 83.871094 Z M 321.464844 257.96875 C 320.402344 257.632812 319.269531 258.234375 319.003906 259.296875 C 318.671875 260.363281 319.269531 261.425781 320.335938 261.757812 C 320.535156 261.824219 320.734375 261.824219 320.867188 261.824219 C 321.734375 261.824219 322.53125 261.226562 322.796875 260.363281 C 323.128906 259.429688 322.53125 258.300781 321.464844 257.96875 Z M 207.109375 356.359375 C 206.046875 356.492188 205.246094 357.554688 205.445312 358.621094 C 205.578125 359.617188 206.445312 360.347656 207.441406 360.347656 C 207.507812 360.347656 207.640625 360.347656 207.707031 360.347656 C 208.773438 360.214844 209.570312 359.152344 209.371094 358.085938 C 209.171875 356.957031 208.175781 356.226562 207.109375 356.359375 Z M 219.617188 87.53125 C 219.75 87.597656 219.949219 87.597656 220.082031 87.597656 C 221.011719 87.597656 221.8125 86.996094 222.011719 86.066406 C 222.277344 85.003906 221.613281 83.9375 220.546875 83.671875 C 219.484375 83.40625 218.417969 84.070312 218.152344 85.136719 C 217.886719 86.199219 218.484375 87.265625 219.617188 87.53125 Z M 206.777344 85.070312 C 206.84375 85.070312 206.976562 85.070312 207.042969 85.070312 C 208.042969 85.070312 208.90625 84.335938 209.039062 83.339844 C 209.171875 82.273438 208.441406 81.210938 207.375 81.078125 C 206.3125 80.945312 205.246094 81.675781 205.113281 82.808594 C 204.914062 83.9375 205.710938 84.933594 206.777344 85.070312 Z M 219.882812 353.898438 C 218.816406 354.164062 218.152344 355.226562 218.417969 356.292969 C 218.617188 357.222656 219.484375 357.820312 220.347656 357.820312 C 220.480469 357.820312 220.679688 357.820312 220.8125 357.753906 C 221.878906 357.488281 222.542969 356.425781 222.277344 355.359375 C 222.011719 354.296875 220.945312 353.628906 219.882812 353.898438 Z M 181.097656 357.621094 C 180.035156 357.554688 179.035156 358.421875 179.035156 359.484375 C 178.96875 360.617188 179.835938 361.546875 180.964844 361.546875 L 181.03125 361.546875 C 182.097656 361.546875 182.960938 360.75 183.027344 359.617188 C 183.027344 358.621094 182.164062 357.621094 181.097656 357.621094 Z M 193.804688 83.871094 L 193.871094 83.871094 C 194.9375 83.871094 195.800781 83.074219 195.867188 81.941406 C 195.933594 80.878906 195.070312 79.878906 193.9375 79.878906 C 192.808594 79.8125 191.875 80.679688 191.875 81.808594 C 191.875 82.875 192.742188 83.804688 193.804688 83.871094 Z M 194.136719 357.621094 C 193.007812 357.6875 192.207031 358.621094 192.207031 359.683594 C 192.273438 360.75 193.140625 361.613281 194.203125 361.613281 L 194.335938 361.613281 C 195.402344 361.546875 196.265625 360.617188 196.199219 359.550781 C 196.132812 358.421875 195.203125 357.554688 194.136719 357.621094 Z M 244.496094 345.382812 C 243.5 345.847656 243.035156 347.042969 243.5 348.042969 C 243.832031 348.773438 244.5625 349.238281 245.296875 349.238281 C 245.5625 349.238281 245.828125 349.171875 246.09375 349.039062 C 247.089844 348.574219 247.558594 347.378906 247.089844 346.378906 C 246.691406 345.382812 245.496094 344.914062 244.496094 345.382812 Z M 232.125 91.121094 C 232.324219 91.1875 232.589844 91.253906 232.789062 91.253906 C 233.585938 91.253906 234.386719 90.722656 234.652344 89.925781 C 234.984375 88.859375 234.453125 87.730469 233.386719 87.398438 C 232.324219 87.0625 231.191406 87.597656 230.859375 88.660156 C 230.527344 89.660156 231.058594 90.789062 232.125 91.121094 Z M 256.074219 339.394531 C 255.140625 339.925781 254.808594 341.191406 255.339844 342.121094 C 255.738281 342.785156 256.40625 343.121094 257.070312 343.121094 C 257.402344 343.121094 257.734375 343.054688 258.066406 342.851562 C 259 342.320312 259.332031 341.058594 258.800781 340.125 C 258.269531 339.195312 257.003906 338.863281 256.074219 339.394531 Z M 266.78125 108.949219 C 267.117188 109.21875 267.515625 109.351562 267.914062 109.351562 C 268.511719 109.351562 269.175781 109.085938 269.578125 108.484375 C 270.242188 107.554688 269.976562 106.355469 269.109375 105.691406 C 268.179688 105.027344 266.980469 105.292969 266.316406 106.15625 C 265.652344 107.023438 265.917969 108.351562 266.78125 108.949219 Z M 255.804688 101.898438 C 256.140625 102.097656 256.472656 102.164062 256.804688 102.164062 C 257.46875 102.164062 258.132812 101.832031 258.535156 101.167969 C 259.066406 100.234375 258.734375 98.972656 257.800781 98.441406 C 256.871094 97.90625 255.605469 98.242188 255.074219 99.171875 C 254.542969 100.167969 254.875 101.367188 255.804688 101.898438 Z M 267.050781 332.34375 C 266.183594 333.007812 265.917969 334.207031 266.582031 335.136719 C 266.980469 335.667969 267.582031 335.933594 268.179688 335.933594 C 268.578125 335.933594 268.976562 335.800781 269.3125 335.535156 C 270.175781 334.871094 270.441406 333.671875 269.777344 332.742188 C 269.175781 331.875 267.914062 331.675781 267.050781 332.34375 Z M 232.390625 350.238281 C 231.324219 350.570312 230.792969 351.703125 231.125 352.765625 C 231.390625 353.5625 232.191406 354.097656 232.988281 354.097656 C 233.1875 354.097656 233.386719 354.097656 233.652344 353.964844 C 234.71875 353.628906 235.25 352.5 234.851562 351.433594 C 234.585938 350.4375 233.453125 349.90625 232.390625 350.238281 Z M 244.230469 95.980469 C 244.496094 96.113281 244.761719 96.179688 245.027344 96.179688 C 245.761719 96.179688 246.492188 95.777344 246.824219 94.980469 C 247.289062 93.984375 246.824219 92.785156 245.828125 92.320312 C 244.828125 91.855469 243.632812 92.320312 243.167969 93.316406 C 242.765625 94.316406 243.234375 95.511719 244.230469 95.980469 Z M 244.230469 95.980469 "/></g><g clip-rule="nonzero" clip-path="url(#clip2)"><path style=" stroke:none;fill-rule:nonzero;fill:rgb(0%,45.489502%,41.958618%);fill-opacity:1;" d="M 285.761719 120.796875 L 274.644531 117.289062 C 271.277344 116.230469 267.691406 118.09375 266.628906 121.453125 L 260.820312 139.824219 L 284.128906 147.171875 L 289.933594 128.800781 C 291 125.441406 289.128906 121.855469 285.761719 120.796875 Z M 282.515625 152.261719 L 253.589844 243.78125 L 235.5625 260.261719 L 230.285156 236.433594 L 259.210938 144.917969 L 282.515625 152.261719 "/></g><g clip-rule="nonzero" clip-path="url(#clip3)"><path style=" stroke:none;fill-rule:nonzero;fill:rgb(0%,45.489502%,41.958618%);fill-opacity:1;" d="M 164.90625 169.230469 L 227.746094 169.230469 C 229.828125 169.230469 231.503906 170.921875 231.503906 173 C 231.503906 175.070312 229.828125 176.757812 227.746094 176.757812 L 164.90625 176.757812 C 162.824219 176.757812 161.132812 175.070312 161.132812 173 C 161.132812 170.921875 162.824219 169.230469 164.90625 169.230469 Z M 164.90625 130.5 L 227.746094 130.5 C 229.828125 130.5 231.503906 132.191406 231.503906 134.269531 C 231.503906 136.332031 229.828125 138.027344 227.746094 138.027344 L 164.90625 138.027344 C 162.824219 138.027344 161.132812 136.332031 161.132812 134.269531 C 161.132812 132.191406 162.824219 130.5 164.90625 130.5 Z M 148.578125 144.582031 L 127.90625 144.582031 L 127.90625 123.945312 L 148.578125 123.945312 Z M 148.578125 183.3125 L 127.90625 183.3125 L 127.90625 162.675781 L 148.578125 162.675781 Z M 148.578125 222.042969 L 127.90625 222.042969 L 127.90625 201.40625 L 148.578125 201.40625 Z M 148.578125 260.773438 L 127.90625 260.773438 L 127.90625 240.136719 L 148.578125 240.136719 Z M 164.90625 207.960938 L 227.746094 207.960938 C 229.390625 207.960938 230.773438 209.027344 231.28125 210.492188 L 245.867188 164.375 L 245.867188 112.421875 L 115.964844 112.421875 L 115.964844 281.863281 L 245.867188 281.863281 L 245.867188 260.140625 L 231.433594 273.335938 L 227.195312 254.207031 L 164.90625 254.207031 C 162.824219 254.207031 161.132812 252.53125 161.132812 250.449219 C 161.132812 248.371094 162.824219 246.691406 164.90625 246.691406 L 225.527344 246.691406 L 223.183594 236.121094 L 229.929688 214.78125 C 229.3125 215.222656 228.566406 215.488281 227.746094 215.488281 L 164.90625 215.488281 C 162.824219 215.488281 161.132812 213.800781 161.132812 211.71875 C 161.132812 209.65625 162.824219 207.960938 164.90625 207.960938 "/></g></g></svg>